<?xml version="1.0" standalone="no"?>
<!DOCTYPE svg PUBLIC "-//W3C//DTD SVG 1.1//EN" "http://www.w3.org/Graphics/SVG/1.1/DTD/svg11.dtd" >
<svg>
<metadata>
Created by FontForge 20120731 at Mon Aug  1 13:22:37 2016
 By ,,,
(c) 2000 Nick Curtis. All Rights Reserved. Generated by Fontographer 3.52 
</metadata>
<defs>
<font id="SnappyService" horiz-adv-x="299" >
  <font-face 
    font-family="SnappyService"
    font-weight="400"
    font-stretch="normal"
    units-per-em="1000"
    panose-1="0 0 0 0 0 0 0 0 0 0"
    ascent="800"
    descent="-200"
    x-height="458"
    cap-height="693"
    bbox="-67 -201 852 824"
    underline-thickness="50"
    underline-position="-55"
    unicode-range="U+0020-F002"
  />
<missing-glyph 
 />
    <glyph glyph-name=".notdef" 
 />
    <glyph glyph-name="glyph1" horiz-adv-x="0" 
 />
    <glyph glyph-name="glyph2" 
 />
    <glyph glyph-name="space" unicode=" " 
 />
    <glyph glyph-name="space" unicode="&#xa0;" 
 />
    <glyph glyph-name="exclam" unicode="!" horiz-adv-x="135" 
d="M129 61q0 -25 -18 -43t-44 -18q-25 0 -43 18t-18 43q0 26 18 44t43 18q26 0 44 -18t18 -44v0zM119 146h-104v547h104v-547v0z" />
    <glyph glyph-name="quotedbl" unicode="&#x22;" horiz-adv-x="256" 
d="M121 691q-11 -24 -26.5 -41t-31.5 -25q-7 -3 -13.5 -4.5t-12.5 -1.5q-4 0 -7.5 1t-7.5 2l20 44q-17 8 -26.5 23.5t-9.5 32.5q0 7 1.5 13t4.5 12q8 17 23 26.5t32 9.5q7 0 13.5 -1.5t12.5 -4.5q18 -7 26.5 -22t8.5 -32q0 -8 -1.5 -16t-5.5 -16v0zM251 691
q-11 -24 -26.5 -41t-31.5 -25q-7 -3 -13.5 -4.5t-12.5 -1.5q-4 0 -7.5 1t-7.5 2l20 44q-17 8 -26.5 23.5t-9.5 32.5q0 7 1.5 13t4.5 12q8 17 23 26.5t32 9.5q7 0 13.5 -1.5t12.5 -4.5q18 -7 26.5 -22t8.5 -32q0 -8 -1.5 -16t-5.5 -16v0z" />
    <glyph glyph-name="numbersign" unicode="#" horiz-adv-x="500" 
 />
    <glyph glyph-name="dollar" unicode="$" horiz-adv-x="273" 
d="M261 494h-33.5h-33.5q-21 0 -34.5 -13.5t-13.5 -30.5q0 -7 3 -14t9 -14q8 -9 16.5 -18t16.5 -19q17 -19 26.5 -41.5t11.5 -45.5v-6v-6q0 -40 -22 -77t-63 -55l74 -154h-153l73 151q-24 -9 -50 -10.5t-53 -0.5h-11.5h-11.5v104h33.5h32.5h3.5h2.5q8 1 15 3.5t12 7.5
q6 5 9 11.5t5 12.5v3.5v3.5q0 8 -2.5 15.5t-8.5 13.5q-8 10 -16.5 19t-16.5 18q-20 22 -29.5 47.5t-9.5 51.5q0 44 25.5 82.5t70.5 54.5l-73 147h153l-72 -144q11 3 23 5t25 2h67v-104v0z" />
    <glyph glyph-name="percent" unicode="%" horiz-adv-x="500" 
 />
    <glyph glyph-name="ampersand" unicode="&#x26;" horiz-adv-x="306" 
d="M292 134h-58.5h-58.5l66 -134h-153l66 134q-58 1 -99 43t-41 100q0 26 8.5 49t24.5 41q-14 17 -22 37.5t-10 40.5q-1 4 -1 7.5v6.5q0 28 10.5 54t31.5 46q19 19 44.5 30t53.5 12l-66 134h153l-66 -134h117v-104h-34h-34h-34h-34t-27.5 -12.5t-10.5 -27.5v-3.5t1 -3.5
q1 -5 3.5 -10t6.5 -9q5 -5 12.5 -8t14.5 -3h68v-105h-33.5h-34.5q-16 0 -27 -11t-11 -27t11 -27.5t27 -11.5h136v-104v0z" />
    <glyph glyph-name="quotesingle" unicode="'" horiz-adv-x="134" 
d="M121 691q-11 -24 -26.5 -41t-31.5 -25q-7 -3 -13.5 -4.5t-12.5 -1.5q-4 0 -7.5 1t-7.5 2l20 44q-17 8 -26.5 23.5t-9.5 32.5q0 7 1.5 13t4.5 12q8 17 23 26.5t32 9.5q7 0 13.5 -1.5t12.5 -4.5q18 -7 26.5 -22t8.5 -32q0 -8 -1.5 -16t-5.5 -16v0z" />
    <glyph glyph-name="parenleft" unicode="(" horiz-adv-x="259" 
d="M248 -43l-33 -98q-47 17 -86 60.5t-66 107.5q-24 58 -37.5 130t-13.5 152t13.5 151.5t37.5 129.5q27 65 66 108.5t86 59.5l33 -98q-25 -8 -48 -36.5t-41 -72.5q-20 -49 -31.5 -111t-11.5 -131q0 -70 11.5 -132t31.5 -110q18 -44 41 -72.5t48 -36.5v-1z" />
    <glyph glyph-name="parenright" unicode=")" horiz-adv-x="259" 
d="M12 -43q25 9 48 37.5t41 72.5q20 48 31.5 110t11.5 132q0 69 -11.5 131t-31.5 111q-18 44 -41 72.5t-48 36.5l33 98q47 -16 86 -59.5t66 -108.5q24 -58 37.5 -129.5t13.5 -151.5t-13.5 -152t-37.5 -130q-27 -64 -66 -107.5t-86 -59.5l-33 97v0z" />
    <glyph glyph-name="asterisk" unicode="*" horiz-adv-x="166" 
d="M158 572l-6 -11l-52 17l-11 -53h-12l-11 53l-52 -17l-6 11l41 36l-41 37l6 10l52 -17l11 54h12l11 -54l52 17l6 -10l-41 -37l41 -36v0z" />
    <glyph glyph-name="plus" unicode="+" horiz-adv-x="500" 
 />
    <glyph glyph-name="comma" unicode="," horiz-adv-x="134" 
d="M121 31q-11 -24 -26.5 -40.5t-31.5 -24.5q-7 -3 -13.5 -4.5t-12.5 -1.5q-4 0 -7.5 0.5t-7.5 2.5l20 43q-17 8 -26.5 23.5t-9.5 32.5q0 7 1.5 13t4.5 12q8 17 23 26.5t32 9.5q7 0 13.5 -1.5t12.5 -4.5q18 -7 26.5 -22t8.5 -32q0 -8 -1.5 -16t-5.5 -16v0z" />
    <glyph glyph-name="hyphen" unicode="-" horiz-adv-x="238" 
d="M215 371v-104h-190v104h190v0z" />
    <glyph glyph-name="period" unicode="." horiz-adv-x="135" 
d="M129 61q0 -25 -18 -43t-44 -18q-25 0 -43 18t-18 43q0 26 18 44t43 18q26 0 44 -18t18 -44v0z" />
    <glyph glyph-name="slash" unicode="/" horiz-adv-x="405" 
d="M87 -100h-104l320 863h104l-320 -863v0z" />
    <glyph glyph-name="zero" unicode="0" horiz-adv-x="583" 
d="M554 346q0 -12 -0.5 -24t-2.5 -25q-11 -111 -78.5 -204t-193.5 -93t-193 93t-78 204q-2 13 -2.5 25t-0.5 24t0.5 24t2.5 25q11 111 78 204t193 93q128 0 195 -94t78 -207q1 -12 1.5 -23t0.5 -22v0zM450 346q0 16 -1.5 33.5t-5.5 35.5q-12 65 -51 119t-113 54t-113 -55
t-51 -120q-3 -17 -4.5 -34t-1.5 -33t1.5 -33.5t5.5 -35.5q12 -65 51 -119t112 -54q74 0 113 54t51 119q4 18 5.5 35.5t1.5 33.5v0z" />
    <glyph glyph-name="one" unicode="1" horiz-adv-x="199" 
d="M181 0h-104v588h-68v104h172v-692v0z" />
    <glyph glyph-name="two" unicode="2" horiz-adv-x="410" 
d="M392 499q0 -108 -48 -187.5t-127 -152.5q-14 -14 -29.5 -27.5t-31.5 -27.5h219v-104h-356v125q41 34 78.5 66t69.5 64q55 56 88 114t33 130q0 39 -18 64t-60 25h-158v104h158q84 0 133 -55t49 -138v0z" />
    <glyph glyph-name="three" unicode="3" horiz-adv-x="398" 
d="M380 229q0 -97 -69 -163t-164 -66h-125v104h64.5h64.5q52 0 88.5 37t36.5 88q0 38 -20 69t-54 46q-21 -13 -44 -24.5t-46 -22.5l-44 93l32 16t42 22q32 20 59.5 44.5t27.5 50.5q0 27 -19 46t-46 19h-132v104h66h66q70 0 119.5 -49.5t49.5 -119.5q0 -31 -12 -58.5
t-33 -51.5q43 -32 67.5 -80.5t24.5 -103.5v0z" />
    <glyph glyph-name="four" unicode="4" horiz-adv-x="568" 
d="M542 223h-119v-223h-104v223h-293v141q0 142 101.5 243.5t243.5 101.5h52v-382h119v-104v0zM319 327v272q-82 -18 -135.5 -84t-53.5 -151v-37h189v0z" />
    <glyph glyph-name="five" unicode="5" horiz-adv-x="394" 
d="M376 229q0 -94 -67 -161.5t-162 -67.5h-129v104h129q52 0 88.5 37t36.5 88q0 9 -1.5 19t-4.5 21q-9 32 -30.5 59t-55.5 28h-158l53 336h272v-104h-184l-20 -131h38q84 -2 137 -68.5t58 -145.5v-6.5v-7.5v0z" />
    <glyph glyph-name="six" unicode="6" horiz-adv-x="549" 
d="M524 256q0 -109 -69.5 -182.5t-179.5 -73.5q-109 0 -179.5 73.5t-70.5 182.5q0 15 0.5 29.5t1.5 29.5q6 69 29 135.5t66 119.5q44 55 110 88.5t156 33.5v-104q-56 0 -105 -21.5t-84 -66.5q20 6 39 8.5t38 2.5q102 0 175 -71.5t73 -183.5v0zM420 256q0 74 -45 112t-99 39
h-1.5h-1.5q-54 0 -99 -37.5t-45 -112.5q1 -66 39 -109.5t107 -43.5q66 0 105.5 43t39.5 109v0z" />
    <glyph glyph-name="seven" unicode="7" horiz-adv-x="448" 
d="M428 692l-266 -729l-97 35l215 590h-260v104h408v0z" />
    <glyph glyph-name="eight" unicode="8" horiz-adv-x="505" 
d="M417 69q-32 -34 -75.5 -51.5t-89.5 -17.5t-89 17.5t-75 51.5q-33 35 -49 80t-16 92q0 57 23 110t69 87q-12 17 -18.5 37.5t-7.5 40.5q-1 4 -1 7.5v6.5q1 32 13 62.5t35 53.5t54 35t63 11q32 0 62.5 -11.5t53.5 -34.5q24 -23 35.5 -54t11.5 -63q0 -24 -6.5 -47.5
t-19.5 -43.5q46 -34 69 -87t23 -110q0 -47 -16.5 -92t-48.5 -80v0zM378 241q0 57 -32.5 97.5t-93.5 40.5q-59 0 -92 -40t-33 -98q0 -57 33 -97t92 -40q60 0 93 40t33 97v0zM312 529q0 28 -16 43.5t-44 15.5q-27 0 -43.5 -15.5t-16.5 -43.5q0 -27 16.5 -42.5t43.5 -15.5
t43.5 15.5t16.5 42.5v0z" />
    <glyph glyph-name="nine" unicode="9" horiz-adv-x="549" 
d="M523 438q0 -15 -0.5 -29.5t-1.5 -29.5q-6 -69 -29 -135.5t-66 -119.5q-44 -55 -110 -88.5t-156 -33.5v104q56 0 105.5 21.5t83.5 66.5q-19 -6 -38.5 -8.5t-38.5 -2.5q-102 0 -175 71.5t-73 183.5q0 109 70 182.5t179 73.5q110 0 180 -73.5t70 -182.5v0zM419 437
q-1 66 -39 109.5t-107 43.5q-66 0 -105.5 -43t-39.5 -109q0 -74 45 -112t99 -39h1.5h1.5q54 0 99 37.5t45 112.5v0z" />
    <glyph glyph-name="colon" unicode=":" horiz-adv-x="135" 
d="M129 61q0 -25 -18 -43t-44 -18q-25 0 -43 18t-18 43q0 26 18 44t43 18q26 0 44 -18t18 -44v0zM129 231q0 -25 -18 -43t-44 -18q-25 0 -43 18t-18 43q0 26 18 44t43 18q26 0 44 -18t18 -44v0z" />
    <glyph glyph-name="semicolon" unicode=";" horiz-adv-x="135" 
d="M121 31q-11 -24 -26.5 -40.5t-31.5 -24.5q-7 -3 -13.5 -4.5t-12.5 -1.5q-4 0 -7.5 0.5t-7.5 2.5l20 43q-17 8 -26.5 23.5t-9.5 32.5q0 7 1.5 13t4.5 12q8 17 23 26.5t32 9.5q7 0 13.5 -1.5t12.5 -4.5q18 -7 26.5 -22t8.5 -32q0 -8 -1.5 -16t-5.5 -16v0zM129 231
q0 -25 -18 -43t-44 -18q-25 0 -43 18t-18 43q0 26 18 44t43 18q26 0 44 -18t18 -44v0z" />
    <glyph glyph-name="less" unicode="&#x3c;" horiz-adv-x="500" 
 />
    <glyph glyph-name="equal" unicode="=" horiz-adv-x="500" 
 />
    <glyph glyph-name="greater" unicode="&#x3e;" horiz-adv-x="500" 
 />
    <glyph glyph-name="question" unicode="?" horiz-adv-x="334" 
d="M221 61q0 -25 -17.5 -43t-43.5 -18q-25 0 -43.5 18t-18.5 43q0 26 18.5 44t43.5 18q26 0 43.5 -18t17.5 -44v0zM270 382q-5 -5 -10 -10.5t-11 -11.5q-17 -18 -32 -38.5t-15 -47.5v-1.5v-1.5q1 -16 7.5 -31t18.5 -26l-69 -76q-29 25 -44 58.5t-17 69.5v4.5v4.5
q0 34 12 66.5t36 58.5q4 4 8 8.5t8 8.5q1 1 2.5 2t2.5 2q18 19 32.5 39t14.5 48v1.5v1.5q-1 50 -36 64t-76 15h-3.5h-2.5q-9 0 -17.5 -0.5t-16.5 -0.5t-15.5 -0.5t-14.5 -0.5v104h16.5t17.5 1h16.5h16.5q43 0 83.5 -8.5t75.5 -40.5q30 -28 45.5 -63.5t15.5 -73.5
q-1 -34 -13 -66t-36 -59v0z" />
    <glyph glyph-name="at" unicode="@" horiz-adv-x="692" 
d="M642 291q-5 -11 -13.5 -27.5t-20.5 -34.5q-6 -9 -12.5 -17.5t-14.5 -16.5q-15 -16 -33.5 -23.5t-41.5 -8.5q-4 0 -18 1.5t-30 11.5q-2 1 -4.5 2.5t-4.5 3.5q-8 6 -15 14t-12 18q-6 -6 -12 -11.5t-11 -9.5q-15 -11 -32 -17.5t-45 -11.5q-2 0 -3.5 -0.5t-3.5 -0.5h-2h-2
q-1 -1 -2 -1h-3q-10 0 -24.5 3.5t-30.5 11.5q-12 6 -23.5 15.5t-20.5 23.5q-13 21 -19.5 45t-8.5 49q0 18 5 40.5t15 46.5q7 16 17 32.5t23 31.5q26 29 56 43.5t66 15.5h73.5h83.5q-3 -15 -5.5 -31t-5.5 -31q-3 -16 -5.5 -32.5t-5.5 -33.5q-4 -31 -9 -62.5t-13 -65.5
q0 -3 0.5 -8t2.5 -10q2 -8 8.5 -15t18.5 -8q10 0 20 4.5t20 14.5q26 31 40.5 69.5t15.5 81.5v6v6q-2 40 -17.5 78.5t-49.5 69.5q-29 31 -70 49t-91 18q-58 0 -107.5 -20.5t-91.5 -62.5q-40 -40 -60.5 -89.5t-21.5 -108.5q0 -57 20.5 -106.5t61.5 -91.5q41 -41 91 -61.5
t108 -21.5q51 0 98.5 18t84.5 51l40 -45q-47 -40 -104 -60t-120 -22q-64 0 -125.5 24t-114.5 75q-44 44 -72 106.5t-28 133.5t25 131t75 110t110 74.5t131 25.5q62 0 113 -22t93 -66q41 -43 61.5 -93.5t20.5 -107.5q0 -19 -3.5 -44.5t-14.5 -55.5v0zM447 460h-86
q-22 0 -42 -10t-37 -31q-16 -19 -26 -41t-15 -47q0 -3 -0.5 -7t-0.5 -8t-0.5 -8t-0.5 -9q0 -8 2 -17.5t7 -19.5q2 -3 4 -6.5t4 -6.5q2 -2 3.5 -4t3.5 -4q9 -10 20 -14.5t32 -4.5q5 0 16 3.5t23 10.5q18 11 31 25.5t25 35.5q7 14 11 29t8 32q0 4 1 8.5t2 8.5q2 6 3 12.5
t2 13.5t2.5 15t2.5 16q1 3 1.5 6.5t1.5 7.5q0 3 0.5 6.5t1.5 7.5v0z" />
    <glyph glyph-name="A" unicode="A" horiz-adv-x="498" 
d="M474 207h-72v-207h-105v207h-190v-207h-103v348q0 141 101 243t244 102h53v-382h72v-104v0zM297 311v272q-82 -18 -136 -84t-54 -151v-37h190v0z" />
    <glyph glyph-name="B" unicode="B" horiz-adv-x="501" 
d="M471 229q0 -95 -68.5 -162t-163.5 -67h-178v232q-3 -1 -6 -2.5t-6 -3.5l-46 94q14 6 28.5 12.5t29.5 13.5v346h194q70 0 119.5 -49.5t49.5 -119.5q0 -32 -12 -59.5t-33 -51.5q43 -32 67.5 -80.5t24.5 -102.5v0zM367 229q0 38 -20 69t-55 46q-29 -18 -61.5 -34t-65.5 -31
v-175h77q52 0 88.5 36.5t36.5 88.5v0zM320 523q0 27 -19 46t-46 19h-44.5h-45.5v-195q62 30 108.5 62.5t46.5 67.5v0z" />
    <glyph glyph-name="C" unicode="C" horiz-adv-x="526" 
d="M497 45q-36 -22 -77 -33.5t-83 -11.5q-68 0 -128 28t-105 75q-47 51 -71 114.5t-23 129.5v6v6q2 63 25.5 122.5t68.5 108.5q45 47 105 74.5t128 27.5q42 0 83 -11t77 -33l-53 -89q-25 15 -52 22t-55 7q-43 0 -84 -17.5t-73 -51.5q-34 -36 -50.5 -81t-16.5 -92v-5.5v-5.5
q2 -44 19 -86t48 -75q32 -34 73.5 -51.5t84.5 -17.5q5 0 10.5 0.5t11.5 0.5q21 2 42.5 9t41.5 19l53 -89v0z" />
    <glyph glyph-name="D" unicode="D" horiz-adv-x="511" 
d="M475 406q0 -91 -27 -167t-84 -132q-52 -50 -128 -78.5t-178 -28.5h-52v692h223q60 0 104.5 -22t74.5 -59t46 -82.5t20 -93.5q0 -8 0.5 -15t0.5 -14v0zM371 406v4v4q-2 66 -35.5 120.5t-106.5 54.5h-119v-482q60 6 105 25t76 49q41 40 60.5 97.5t19.5 127.5v0z" />
    <glyph glyph-name="E" unicode="E" horiz-adv-x="486" 
d="M451 0h-239q-85 0 -146 61t-61 146q0 48 22 91.5t60 72.5q-24 26 -37.5 59.5t-13.5 70.5q0 79 56 135.5t135 56.5h217v-104h-217q-36 0 -61.5 -26t-25.5 -62t25.5 -62t61.5 -26h157v-104h-157q-25 0 -46.5 -5t-41.5 -25q-13 -13 -20 -28.5t-9 -30.5q-1 -4 -1 -7v-6
q1 -39 29 -71t74 -32h239v-104v0z" />
    <glyph glyph-name="F" unicode="F" horiz-adv-x="516" 
d="M474 588h-264v-156h210v-103h-210v-329h-104v329h-104v103h104v260h368v-104v0z" />
    <glyph glyph-name="G" unicode="G" horiz-adv-x="510" 
d="M470 0h-116q-143 0 -245.5 102t-102.5 246q0 143 102 245t246 102h93v-104h-93q-100 0 -172 -71t-72 -172q0 -100 71.5 -172t172.5 -72h12v225h-69v103h173v-432v0z" />
    <glyph glyph-name="H" unicode="H" horiz-adv-x="528" 
d="M490 0h-104v329h-217v-329h-104v329h-63v103h63v261h104v-261h217v261h104v-693v0z" />
    <glyph glyph-name="I" unicode="I" horiz-adv-x="136" 
d="M105 0h-104v693h104v-693v0z" />
    <glyph glyph-name="J" unicode="J" horiz-adv-x="316" 
d="M290 158q0 -65 -46.5 -111.5t-111.5 -46.5h-126v104h126q23 0 38.5 16t15.5 38v535h104v-535v0z" />
    <glyph glyph-name="K" unicode="K" horiz-adv-x="497" 
d="M494 693l-234 -349q74 -27 119.5 -92t45.5 -145v-107h-104v107q0 62 -43.5 105.5t-105.5 43.5h-66v-256h-103v691h103v-388l263 390h125v0z" />
    <glyph glyph-name="L" unicode="L" horiz-adv-x="400" 
d="M369 0h-206q-65 0 -111.5 46.5t-46.5 111.5v535h104v-535q0 -22 16 -38t38 -16h206v-104v0z" />
    <glyph glyph-name="M" unicode="M" horiz-adv-x="653" 
d="M615 0h-104v514q0 31 -21.5 52.5t-52.5 21.5t-52.5 -21.5t-21.5 -52.5v-514h-104v514q0 31 -22 52.5t-52 21.5q-31 0 -53 -21.5t-22 -52.5v-514h-104v514q0 80 56.5 129.5t125.5 49.5q33 -1 65 -13.5t58 -39.5q22 23 48 35.5t53 16.5q6 0 11.5 0.5t10.5 0.5
q69 -1 125 -50t56 -129v-514v0z" />
    <glyph glyph-name="N" unicode="N" horiz-adv-x="511" 
d="M472 0h-104v474q0 54 -38.5 92.5t-92.5 38.5t-93 -38.5t-39 -92.5v-474h-103v474q0 97 69 166t166 69t166 -69t69 -166v-474v0z" />
    <glyph glyph-name="O" unicode="O" horiz-adv-x="583" 
d="M554 346q0 -12 -0.5 -24t-2.5 -25q-11 -111 -78.5 -204t-193.5 -93t-193 93t-78 204q-2 13 -2.5 25t-0.5 24t0.5 24t2.5 25q11 111 78 204t193 93q128 0 195 -94t78 -207q1 -12 1.5 -23t0.5 -22v0zM450 346q0 16 -1.5 33.5t-5.5 35.5q-12 65 -51 119t-113 54t-113 -55
t-51 -120q-3 -17 -4.5 -34t-1.5 -33t1.5 -33.5t5.5 -35.5q12 -65 51 -119t112 -54q74 0 113 54t51 119q4 18 5.5 35.5t1.5 33.5v0z" />
    <glyph glyph-name="P" unicode="P" horiz-adv-x="476" 
d="M440 503q0 -98 -82.5 -161.5t-182.5 -113.5q-2 -2 -5 -3.5t-6 -2.5v-222h-104v169q-3 -1 -5.5 -2t-4.5 -3l-50 91l30 16t30 15v407h206q76 0 125 -58t49 -132v0zM337 503q0 3 -0.5 6.5t-0.5 7.5q-4 27 -22.5 49.5t-47.5 22.5h-102v-251q68 37 120.5 77.5t52.5 87.5v0z
" />
    <glyph glyph-name="Q" unicode="Q" horiz-adv-x="588" 
d="M554 346q0 -11 -0.5 -22.5t-1.5 -22.5q-5 -58 -25.5 -114t-59.5 -101l57 -84l-86 -58l-54 79q-25 -11 -51 -17t-52 -6q-58 0 -111 27t-91 76q-37 49 -55.5 113.5t-17.5 131.5v5.5v5.5q1 63 19.5 123.5t53.5 107.5q36 47 87 74.5t114 27.5q127 0 194 -94t78 -207
q1 -12 1.5 -23t0.5 -22v0zM404 175q23 35 35 80t12 93v4.5v4.5q-2 47 -15 92t-38 78q-23 31 -54.5 46.5t-64.5 14.5q-32 0 -63 -15t-54 -46q-26 -35 -39.5 -83t-12.5 -99q0 -50 13 -97.5t39 -82.5q22 -28 53 -44.5t65 -16.5q5 0 10.5 0.5t11.5 1.5q5 1 10.5 2.5t10.5 2.5
q-19 23 -46.5 35t-58.5 12v104q53 0 102.5 -23t83.5 -64v0z" />
    <glyph glyph-name="R" unicode="R" horiz-adv-x="485" 
d="M463 0h-104v46.5v47.5v46.5v46.5q0 34 -15 63t-42 48q-27 -18 -57 -34.5t-60 -32.5q-5 -2 -10 -4.5t-10 -5.5v-221h-104v169q-3 -1 -5.5 -2.5t-4.5 -2.5l-50 90l30 16t30 15v408h51.5h51.5q26 -1 51.5 -1h51.5q77 0 126 -57.5t49 -131.5q0 -40 -16 -74t-42 -63
q38 -34 58.5 -81t20.5 -98v-187v0zM338 503q0 4 -0.5 8t-0.5 8q-5 26 -23 47.5t-47 21.5h-102v-250q69 36 121 77t52 88v0z" />
    <glyph glyph-name="S" unicode="S" horiz-adv-x="440" 
d="M413 588q-8 0 -17 0.5t-19 0.5t-20 0.5t-20 0.5h-3h-3q-52 -1 -95.5 -19t-46.5 -83v-2.5v-2.5q0 -33 18.5 -58.5t40.5 -48.5l7 -7l7 -7q2 -3 5 -5.5t5 -5.5q25 -27 38.5 -60.5t15.5 -67.5v-7v-6q0 -43 -17 -83.5t-51 -71.5q-47 -43 -102.5 -49t-113.5 -6h-20.5h-20.5v104
h16.5h17.5q9 -1 18.5 -1h19.5h5.5h5.5q51 1 93.5 19.5t44.5 81.5v0.5v1.5v1.5v0.5q0 35 -16.5 59.5t-38.5 46.5q-3 2 -5 4.5t-5 5.5l-8.5 8.5t-8.5 9.5q-25 28 -38.5 61t-16.5 67v7.5v6.5q0 43 17 83t51 71q41 37 88 46t97 9h18.5h19.5q9 -1 18.5 -1h18.5v-104v0z" />
    <glyph glyph-name="T" unicode="T" horiz-adv-x="387" 
d="M356 588h-125v-588h-103v588h-125v104h353v-104v0z" />
    <glyph glyph-name="U" unicode="U" horiz-adv-x="477" 
d="M446 209q0 -91 -65 -156t-157 -65q-91 0 -156.5 65t-65.5 156v484h104v-484q0 -48 34.5 -83t83.5 -35t83.5 34.5t34.5 83.5v484h104v-484v0z" />
    <glyph glyph-name="V" unicode="V" horiz-adv-x="582" 
d="M580 693l-239 -693h-99l-239 693h110l179 -517l178 517h110v0z" />
    <glyph glyph-name="W" unicode="W" horiz-adv-x="650" 
d="M615 166q0 -80 -56.5 -129t-125.5 -49h-6.5h-6.5q-29 3 -57 15t-52 37q-22 -23 -48 -35t-53 -16q-6 0 -11.5 -0.5t-10.5 -0.5q-69 0 -125.5 49.5t-56.5 128.5v527h104v-527q0 -31 22 -53t53 -22q30 0 52 22t22 53v527h104v-527q0 -31 21.5 -53t52.5 -22t52.5 22t21.5 53
v527h104v-527v0z" />
    <glyph glyph-name="X" unicode="X" horiz-adv-x="452" 
d="M417 0h-104v143q0 67 -30.5 103t-71.5 60q-40 -24 -71 -60t-31 -103v-143h-103v143q0 86 30 137t74 84q-44 29 -74 71t-30 115v141h103v-141q0 -49 31 -76t71 -49q41 22 71.5 49t30.5 76v141h104v-141q0 -73 -30 -115t-74 -71q44 -33 74 -84t30 -137v-143v0z" />
    <glyph glyph-name="Y" unicode="Y" horiz-adv-x="536" 
d="M536 692l-180 -396h2h2h1h2v-104q-13 0 -26.5 1.5t-26.5 2.5l-89 -196h-114l103 226q-94 44 -151.5 133t-57.5 195v138h104v-138q0 -74 40.5 -137.5t107.5 -95.5l169 371h114v0z" />
    <glyph glyph-name="Z" unicode="Z" horiz-adv-x="445" 
d="M428 692l-264 -588h249v-104h-409l264 588h-231v104h391v0z" />
    <glyph glyph-name="bracketleft" unicode="[" horiz-adv-x="500" 
 />
    <glyph glyph-name="backslash" unicode="\" horiz-adv-x="405" 
d="M323 -100l-320 863h104l320 -863h-104v0z" />
    <glyph glyph-name="bracketright" unicode="]" horiz-adv-x="500" 
 />
    <glyph glyph-name="asciicircum" unicode="^" horiz-adv-x="500" 
 />
    <glyph glyph-name="underscore" unicode="_" horiz-adv-x="678" 
d="M684 -9v-54h-689v54h689v0z" />
    <glyph glyph-name="grave" unicode="`" horiz-adv-x="175" 
d="M159 715h-65l-90 85h98l57 -85v0z" />
    <glyph glyph-name="a" unicode="a" horiz-adv-x="443" 
d="M408 0h-277q-59 0 -92.5 43t-33.5 99q0 41 13 76.5t39 60.5q25 24 59.5 37t79.5 13h56q-7 11 -19.5 18.5t-26.5 7.5h-122v104h122q65 0 111 -46.5t46 -111.5v-197h45v-104v0zM259 104v121h-63q-38 0 -58 -18.5t-27 -40.5l-2 -12t-1 -12q0 -16 6.5 -27t16.5 -11h128v0z
" />
    <glyph glyph-name="b" unicode="b" horiz-adv-x="410" 
d="M379 265q0 -58 -18 -108t-56 -87q-49 -48 -109 -59t-122 -11h-17h-17h-17.5h-16.5v693h104v-235h100q41 0 71.5 -15t52.5 -41q19 -23 29.5 -51.5t14.5 -58.5q0 -7 0.5 -13.5t0.5 -13.5v0zM275 265v6v6q-3 29 -17.5 53t-47.5 24h-50h-50v-250q43 0 73.5 10.5t49.5 29.5
q21 21 31.5 52t10.5 69v0z" />
    <glyph glyph-name="c" unicode="c" horiz-adv-x="344" 
d="M314 354h-70.5h-70.5q-33 0 -47.5 -24t-17.5 -53v-6v-6q0 -38 10.5 -69t31.5 -52q20 -19 51 -29.5t75 -10.5h37v-104h-37q-66 0 -115 18.5t-83 51.5q-37 37 -55.5 87t-18.5 108q0 7 0.5 13.5t0.5 13.5q4 30 14.5 58.5t29.5 51.5q22 26 52.5 41t71.5 15h141v-104v0z" />
    <glyph glyph-name="d" unicode="d" horiz-adv-x="416" 
d="M384 0h-209q-41 0 -72 16t-52 41q-19 23 -30 51.5t-14 58.5q0 7 -0.5 13.5t-0.5 12.5q0 59 18 109t55 86q35 33 84 51.5t114 18.5h1h2v235h104v-693v0zM280 104v250h-3q-43 0 -74.5 -10.5t-51.5 -29.5q-21 -21 -31 -52t-10 -69v-6v-6q3 -29 17.5 -53t47.5 -24h52.5h52.5
v0z" />
    <glyph glyph-name="e" unicode="e" horiz-adv-x="453" 
d="M413 213h-129.5t-129.5 1q5 -21 14 -38.5t22 -30.5q25 -24 58 -32t67 -9q12 -1 24 -0.5t23 0.5h13h12v-104h-70q-66 0 -115 18.5t-84 51.5q-28 29 -45.5 65t-23.5 79h-48v104h50q13 61 55.5 100.5t107.5 39.5h15.5h14.5q81 0 125 -58t44 -135v-25.5v-26.5v0zM299 317
q-8 18 -21.5 27.5t-33.5 9.5h-14.5h-15.5q-20 0 -33.5 -9.5t-21.5 -27.5h140v0z" />
    <glyph glyph-name="f" unicode="f" horiz-adv-x="300" 
d="M273 588h-52q-22 0 -38 -15.5t-16 -37.5v-77h96v-104h-96v-354h-104v354h-62v104h62v77q0 65 46.5 111t111.5 46h52v-104v0z" />
    <glyph glyph-name="g" unicode="g" horiz-adv-x="441" 
d="M412 354h-38v-395q0 -64 -46.5 -110t-111.5 -46v103q23 1 38.5 16.5t15.5 37.5v40h-96q-82 0 -125.5 58.5t-43.5 134.5q0 59 18 109t56 86q34 33 83 51.5t115 18.5h135v-104v0zM270 104v250q-41 -1 -70.5 -11.5t-48.5 -28.5q-22 -21 -32 -52t-10 -69v-8t1 -8
q3 -27 17.5 -50t46.5 -23h96v0z" />
    <glyph glyph-name="h" unicode="h" horiz-adv-x="412" 
d="M380 0h-104v271q0 35 -24 59t-59 24q-34 0 -58.5 -24t-24.5 -59v-271h-104v693h104v-254q10 5 20.5 8.5t20.5 5.5q10 3 20.5 4t20.5 1q74 0 131 -52.5t57 -134.5v-271v0z" />
    <glyph glyph-name="i" unicode="i" horiz-adv-x="151" 
d="M111 0h-104v459h104v-459v0zM121 630q0 -26 -18 -44.5t-44 -18.5t-44 18.5t-18 44.5t18 44t44 18t44 -18t18 -44v0z" />
    <glyph glyph-name="j" unicode="j" horiz-adv-x="186" 
d="M158 -41q0 -64 -46.5 -110t-111.5 -46v103q23 1 38.5 16.5t15.5 37.5v499h104v-500v0zM164 630q0 -26 -18 -44.5t-44 -18.5q-25 0 -43.5 18.5t-18.5 44.5t18.5 44t43.5 18q26 0 44 -18t18 -44v0z" />
    <glyph glyph-name="k" unicode="k" horiz-adv-x="412" 
d="M403 459l-165 -186q59 -16 98 -65.5t39 -114.5v-93h-104v93q0 35 -24.5 59t-59.5 24q-34 0 -58.5 -24t-24.5 -59v-93h-104v93v600h104v-413l160 179h139v0z" />
    <glyph glyph-name="l" unicode="l" horiz-adv-x="134" 
d="M107 0h-104v693h104v-693v0z" />
    <glyph glyph-name="m" unicode="m" horiz-adv-x="562" 
d="M529 0h-104v301q0 22 -15.5 37.5t-37.5 15.5t-37.5 -15t-15.5 -38v-301h-105v301q0 22 -15.5 37.5t-37.5 15.5t-37.5 -15t-15.5 -38v-301h-104v301q0 71 49 114t110 43h8t7 -1q24 -2 46.5 -12t42.5 -28q23 21 50 31t55 10q60 0 108.5 -43t48.5 -114v-301v0z" />
    <glyph glyph-name="n" unicode="n" horiz-adv-x="412" 
d="M380 0h-104v271q0 35 -24 59t-59 24q-34 0 -58.5 -24t-24.5 -59v-271h-104v459h104v-20q19 9 40 14t43 5q77 0 132 -55t55 -132v-271v0z" />
    <glyph glyph-name="o" unicode="o" horiz-adv-x="450" 
d="M361 67q-28 -32 -65 -48.5t-76 -18.5h-4.5h-4.5h-4.5h-4.5q-39 2 -76 19t-65 48q-29 34 -43 76t-14 85q0 87 54 158.5t153 71.5q100 0 154 -72t54 -159q-1 -43 -15 -84.5t-43 -75.5v0zM283 136q14 17 22 39t9 45v5v4q0 47 -25.5 86t-77.5 39t-78 -39.5t-25 -86.5
q0 -25 7.5 -49.5t23.5 -42.5q14 -16 33.5 -24t39.5 -7q20 0 39 7.5t32 23.5v0z" />
    <glyph glyph-name="p" unicode="p" horiz-adv-x="483" 
d="M447 274q0 -96 -84.5 -158t-185.5 -110q-3 -1 -5 -2l-4 -2v-171h-104v121q-2 0 -4 -1l-4 -2l-4 -2l-4 -2l-48 91q14 8 30.5 15.5t33.5 15.5v391h206q37 0 69.5 -14.5t56.5 -40.5q23 -25 37 -58t14 -71v0zM343 274q0 17 -6 32t-17 26q-10 11 -23 16.5t-27 5.5h-102v-237
q70 35 122.5 74t52.5 83v0z" />
    <glyph glyph-name="q" unicode="q" horiz-adv-x="451" 
d="M454 423q-7 -4 -14.5 -8t-15.5 -7q-8 -4 -16.5 -8t-16.5 -8v-561h-104v169h-102q-37 0 -69.5 15.5t-57.5 40.5q-23 25 -37 58.5t-14 70.5q0 96 85 157.5t186 110.5q11 5 21.5 10t20.5 10q8 4 15 7t14 7q15 7 29 14l28 14l48 -92v0zM287 104v238q-70 -34 -123 -73.5
t-53 -83.5q0 -17 6.5 -32t16.5 -26q10 -10 23 -16.5t28 -6.5h102v0z" />
    <glyph glyph-name="r" unicode="r" horiz-adv-x="376" 
d="M307 414q17 -19 27 -41.5t12 -45.5v-6v-6q0 -28 -11 -55t-33 -48l-71 75q7 6 9.5 13.5t2.5 14.5q0 15 -11.5 27t-27.5 12q-4 0 -7.5 -0.5t-6.5 -2.5q-4 -1 -7.5 -3.5t-7.5 -5.5l-28 -24v-1.5v-0.5v-316h-104v316q0 8 -3 15t-8 12t-12.5 8t-15.5 3v104q29 0 55 -10.5
t45 -29.5l3 3q21 18 46.5 27.5t51.5 9.5q28 0 54.5 -11t47.5 -33v0z" />
    <glyph glyph-name="s" unicode="s" horiz-adv-x="276" 
d="M253 354h-16.5h-16.5h-17.5h-16.5q-21 0 -34 -13t-13 -30q0 -7 2.5 -14t8.5 -14q8 -10 16.5 -19t16.5 -18q20 -21 29.5 -47t8.5 -53v-4.5v-4.5q-2 -27 -14 -53t-33 -45q-34 -30 -71.5 -34.5t-78.5 -4.5h-9h-10v104h16h17h16h16h3.5h3.5q8 1 15 3.5t12 7.5q7 7 10.5 15.5
t3.5 17.5q-1 8 -3.5 15t-7.5 13q-4 5 -8.5 9.5t-8.5 9.5q-5 4 -9 9t-8 9q-19 22 -28.5 47t-9.5 51q0 56 40.5 101.5t110.5 45.5h67v-104v0z" />
    <glyph glyph-name="t" unicode="t" horiz-adv-x="257" 
d="M238 354h-68v-196q0 -22 16 -38t38 -16v-104q-65 0 -111.5 46.5t-46.5 111.5v196h-62v104h62v182h104v-182h68v-104v0z" />
    <glyph glyph-name="u" unicode="u" horiz-adv-x="362" 
d="M332 0h-141q-77 0 -132.5 55t-55.5 133v271h104v-271q0 -34 25 -59t59 -25h37v355h104v-459v0z" />
    <glyph glyph-name="v" unicode="v" horiz-adv-x="416" 
d="M417 459l-159 -460h-98l-159 460h110l98 -284l98 284h110v0z" />
    <glyph glyph-name="w" unicode="w" horiz-adv-x="564" 
d="M529 157q0 -64 -46 -110.5t-111 -46.5q-30 0 -57 11t-48 30q-22 -20 -50 -30.5t-57 -10.5h-6t-6 1q-26 2 -51.5 13.5t-46.5 31.5q-21 22 -33.5 50.5t-12.5 60.5v302h104v-302q0 -22 15.5 -37.5t37.5 -15.5t37.5 15.5t15.5 37.5v302h105v-302q0 -22 15.5 -37.5t37.5 -15.5
t37.5 15.5t15.5 37.5v302h104v-302v0z" />
    <glyph glyph-name="x" unicode="x" horiz-adv-x="359" 
d="M330 0h-104v95q0 35 -17.5 55t-41.5 34q-25 -14 -42.5 -34t-17.5 -55v-95h-104v95q0 54 17.5 88.5t43.5 56.5q-26 20 -43.5 49t-17.5 76v94h104v-94q0 -23 18 -37.5t42 -26.5q24 12 41.5 26.5t17.5 37.5v94h104v-94q0 -47 -17.5 -76t-43.5 -49q26 -22 43.5 -56.5
t17.5 -88.5v-95v0z" />
    <glyph glyph-name="y" unicode="y" horiz-adv-x="435" 
d="M434 458l-156 -345q16 -4 33 -6.5t34 -2.5v-104q-28 0 -56 4.5t-54 13.5l-83 -185l-95 43l86 191q-61 47 -99 117.5t-38 153.5v128h104v-128q0 -51 21 -96t57 -77l132 293h114v0z" />
    <glyph glyph-name="z" unicode="z" horiz-adv-x="413" 
d="M411 458l-220 -354h180v-104h-366l220 354h-166v104h352v0z" />
    <glyph glyph-name="braceleft" unicode="{" horiz-adv-x="500" 
 />
    <glyph glyph-name="bar" unicode="|" horiz-adv-x="114" 
d="M89 -200h-64v993h64v-993v0z" />
    <glyph glyph-name="braceright" unicode="}" horiz-adv-x="500" 
 />
    <glyph glyph-name="asciitilde" unicode="~" horiz-adv-x="500" 
 />
    <glyph glyph-name="Adieresis" unicode="&#xc4;" horiz-adv-x="498" 
d="M474 207h-72v-207h-105v207h-190v-207h-103v348q0 141 101 243t244 102h53v-382h72v-104v0zM297 311v272q-82 -18 -136 -84t-54 -151v-37h190v0zM307 748q0 -16 -11 -27t-28 -11q-16 0 -27 11t-11 27t11 27.5t27 11.5q17 0 28 -11.5t11 -27.5v0zM395 748q0 -16 -11 -27
t-28 -11q-16 0 -27 11t-11 27t11 27.5t27 11.5q17 0 28 -11.5t11 -27.5v0z" />
    <glyph glyph-name="Aring" unicode="&#xc5;" horiz-adv-x="498" 
d="M474 207h-72v-207h-105v207h-190v-207h-103v348q0 141 101 243t244 102h53v-382h72v-104v0zM297 311v272q-82 -18 -136 -84t-54 -151v-37h190v0zM360 756q0 -19 -15 -34t-36 -15q-19 0 -34 15t-15 34q0 21 15 36t34 15q21 0 36 -15t15 -36v0zM335 756q0 11 -7.5 18
t-18.5 7q-10 0 -16.5 -7t-6.5 -18q0 -10 6.5 -17t16.5 -7q11 0 18.5 7t7.5 17v0z" />
    <glyph glyph-name="Ccedilla" unicode="&#xc7;" horiz-adv-x="526" 
d="M405 -98q0 -13 -4.5 -24.5t-12.5 -21.5q-14 -15 -33.5 -22.5t-39.5 -9.5q-5 -1 -9.5 -1h-8.5h-9.5t-9.5 1q-24 2 -46.5 10t-36.5 20l43 48q8 -6 24.5 -10t34.5 -4q8 0 15.5 1t13.5 3q1 0 2.5 0.5t3.5 1.5q3 1 6 3t3 6q0 6 -6.5 10.5t-13.5 6.5q-5 2 -9.5 3t-7.5 1l-36 5
q5 16 9 31t9 30q4 14 8.5 29t8.5 30l62 -18l-16 -53q24 -10 40 -29t16 -46v-1zM497 45q-36 -22 -77 -33.5t-83 -11.5q-68 0 -128 28t-105 75q-47 51 -71 114.5t-23 129.5v6v6q2 63 25.5 122.5t68.5 108.5q45 47 105 74.5t128 27.5q42 0 83 -11t77 -33l-53 -89q-25 15 -52 22
t-55 7q-43 0 -84 -17.5t-73 -51.5q-34 -36 -50.5 -81t-16.5 -92v-5.5v-5.5q2 -44 19 -86t48 -75q32 -34 73.5 -51.5t84.5 -17.5q5 0 10.5 0.5t11.5 0.5q21 2 42.5 9t41.5 19l53 -89v0z" />
    <glyph glyph-name="Eacute" unicode="&#xc9;" horiz-adv-x="486" 
d="M451 0h-239q-85 0 -146 61t-61 146q0 48 22 91.5t60 72.5q-24 26 -37.5 59.5t-13.5 70.5q0 79 56 135.5t135 56.5h217v-104h-217q-36 0 -61.5 -26t-25.5 -62t25.5 -62t61.5 -26h157v-104h-157q-25 0 -46.5 -5t-41.5 -25q-13 -13 -20 -28.5t-9 -30.5q-1 -4 -1 -7v-6
q1 -39 29 -71t74 -32h239v-104v0zM400 790l-90 -85h-65l57 85h98v0z" />
    <glyph glyph-name="Ntilde" unicode="&#xd1;" horiz-adv-x="511" 
d="M472 0h-104v474q0 54 -38.5 92.5t-92.5 38.5t-93 -38.5t-39 -92.5v-474h-103v474q0 97 69 166t166 69t166 -69t69 -166v-474v0zM350 816q0 -6 -1 -13.5t-3 -14.5q-3 -13 -8.5 -24.5t-13.5 -19.5q-8 -10 -18.5 -14.5t-21.5 -4.5q-3 0 -5.5 0.5t-4.5 0.5q-2 1 -4.5 1.5
t-5.5 1.5q-18 7 -36 13.5t-36 13.5q-2 -5 -4 -11t-2 -12h-65q0 6 1 13.5t3 14.5q3 13 9 24.5t13 19.5q8 10 18.5 14.5t21.5 4.5q3 0 5.5 -0.5t4.5 -0.5q2 -1 4.5 -1.5t5.5 -1.5q18 -7 36 -13.5t36 -13.5q2 3 3.5 7.5t1.5 9.5q1 1 1 3v3h65v0z" />
    <glyph glyph-name="Odieresis" unicode="&#xd6;" horiz-adv-x="583" 
d="M554 346q0 -12 -0.5 -24t-2.5 -25q-11 -111 -78.5 -204t-193.5 -93t-193 93t-78 204q-2 13 -2.5 25t-0.5 24t0.5 24t2.5 25q11 111 78 204t193 93q128 0 195 -94t78 -207q1 -12 1.5 -23t0.5 -22v0zM450 346q0 16 -1.5 33.5t-5.5 35.5q-12 65 -51 119t-113 54t-113 -55
t-51 -120q-3 -17 -4.5 -34t-1.5 -33t1.5 -33.5t5.5 -35.5q12 -65 51 -119t112 -54q74 0 113 54t51 119q4 18 5.5 35.5t1.5 33.5v0zM274 747q0 -16 -11 -27t-28 -11q-16 0 -27 11t-11 27t11 27.5t27 11.5q17 0 28 -11.5t11 -27.5v0zM362 747q0 -16 -11 -27t-28 -11
q-16 0 -27 11t-11 27t11 27.5t27 11.5q17 0 28 -11.5t11 -27.5v0z" />
    <glyph glyph-name="Udieresis" unicode="&#xdc;" horiz-adv-x="477" 
d="M446 209q0 -91 -65 -156t-157 -65q-91 0 -156.5 65t-65.5 156v484h104v-484q0 -48 34.5 -83t83.5 -35t83.5 34.5t34.5 83.5v484h104v-484v0zM217 730q0 -16 -11 -27t-28 -11q-16 0 -27 11t-11 27t11 27.5t27 11.5q17 0 28 -11.5t11 -27.5v0zM305 730q0 -16 -11 -27
t-28 -11q-16 0 -27 11t-11 27t11 27.5t27 11.5q17 0 28 -11.5t11 -27.5v0z" />
    <glyph glyph-name="aacute" unicode="&#xe1;" horiz-adv-x="443" 
d="M408 0h-277q-59 0 -92.5 43t-33.5 99q0 41 13 76.5t39 60.5q25 24 59.5 37t79.5 13h56q-7 11 -19.5 18.5t-26.5 7.5h-122v104h122q65 0 111 -46.5t46 -111.5v-197h45v-104v0zM259 104v121h-63q-38 0 -58 -18.5t-27 -40.5l-2 -12t-1 -12q0 -16 6.5 -27t16.5 -11h128v0z
M314 558l-90 -85h-65l57 85h98v0z" />
    <glyph glyph-name="agrave" unicode="&#xe0;" horiz-adv-x="443" 
d="M408 0h-277q-59 0 -92.5 43t-33.5 99q0 41 13 76.5t39 60.5q25 24 59.5 37t79.5 13h56q-7 11 -19.5 18.5t-26.5 7.5h-122v104h122q65 0 111 -46.5t46 -111.5v-197h45v-104v0zM259 104v121h-63q-38 0 -58 -18.5t-27 -40.5l-2 -12t-1 -12q0 -16 6.5 -27t16.5 -11h128v0z
M229 475h-65l-90 85h98l57 -85v0z" />
    <glyph glyph-name="acircumflex" unicode="&#xe2;" horiz-adv-x="443" 
d="M408 0h-277q-59 0 -92.5 43t-33.5 99q0 41 13 76.5t39 60.5q25 24 59.5 37t79.5 13h56q-7 11 -19.5 18.5t-26.5 7.5h-122v104h122q65 0 111 -46.5t46 -111.5v-197h45v-104v0zM259 104v121h-63q-38 0 -58 -18.5t-27 -40.5l-2 -12t-1 -12q0 -16 6.5 -27t16.5 -11h128v0z
M307 480h-62l-58 32l-57 -32h-62l119 102l120 -102v0z" />
    <glyph glyph-name="adieresis" unicode="&#xe4;" horiz-adv-x="443" 
d="M408 0h-277q-59 0 -92.5 43t-33.5 99q0 41 13 76.5t39 60.5q25 24 59.5 37t79.5 13h56q-7 11 -19.5 18.5t-26.5 7.5h-122v104h122q65 0 111 -46.5t46 -111.5v-197h45v-104v0zM259 104v121h-63q-38 0 -58 -18.5t-27 -40.5l-2 -12t-1 -12q0 -16 6.5 -27t16.5 -11h128v0z
M175 514q0 -16 -11 -27t-28 -11q-16 0 -27 11t-11 27t11 27.5t27 11.5q17 0 28 -11.5t11 -27.5v0zM263 514q0 -16 -11 -27t-28 -11q-16 0 -27 11t-11 27t11 27.5t27 11.5q17 0 28 -11.5t11 -27.5v0z" />
    <glyph glyph-name="atilde" unicode="&#xe3;" horiz-adv-x="443" 
d="M408 0h-277q-59 0 -92.5 43t-33.5 99q0 41 13 76.5t39 60.5q25 24 59.5 37t79.5 13h56q-7 11 -19.5 18.5t-26.5 7.5h-122v104h122q65 0 111 -46.5t46 -111.5v-197h45v-104v0zM259 104v121h-63q-38 0 -58 -18.5t-27 -40.5l-2 -12t-1 -12q0 -16 6.5 -27t16.5 -11h128v0z
M308 567q0 -6 -1 -13.5t-3 -14.5q-3 -13 -8.5 -24.5t-13.5 -19.5q-8 -10 -18.5 -14.5t-21.5 -4.5q-3 0 -5.5 0.5t-4.5 0.5q-2 1 -4.5 1.5t-5.5 1.5q-18 7 -36 13.5t-36 13.5q-2 -5 -4 -11t-2 -12h-65q0 6 1 13.5t3 14.5q3 13 9 24.5t13 19.5q8 10 18.5 14.5t21.5 4.5
q3 0 5.5 -0.5t4.5 -0.5q2 -1 4.5 -1.5t5.5 -1.5q18 -7 36 -13.5t36 -13.5q2 3 3.5 7.5t1.5 9.5q1 1 1 3v3h65v0z" />
    <glyph glyph-name="aring" unicode="&#xe5;" horiz-adv-x="443" 
d="M408 0h-277q-59 0 -92.5 43t-33.5 99q0 41 13 76.5t39 60.5q25 24 59.5 37t79.5 13h56q-7 11 -19.5 18.5t-26.5 7.5h-122v104h122q65 0 111 -46.5t46 -111.5v-197h45v-104v0zM259 104v121h-63q-38 0 -58 -18.5t-27 -40.5l-2 -12t-1 -12q0 -16 6.5 -27t16.5 -11h128v0z
M247 525q0 -19 -15 -34t-36 -15q-19 0 -34 15t-15 34q0 21 15 36t34 15q21 0 36 -15t15 -36v0zM222 525q0 11 -7.5 18t-18.5 7q-10 0 -16.5 -7t-6.5 -18q0 -10 6.5 -17t16.5 -7q11 0 18.5 7t7.5 17v0z" />
    <glyph glyph-name="ccedilla" unicode="&#xe7;" horiz-adv-x="344" 
d="M301 -92q0 -13 -4.5 -24.5t-12.5 -21.5q-14 -15 -33.5 -22.5t-39.5 -9.5q-5 -1 -9.5 -1h-8.5h-9.5t-9.5 1q-24 2 -46.5 10t-36.5 20l43 48q8 -6 24.5 -10t34.5 -4q8 0 15.5 1t13.5 3q1 0 2.5 0.5t3.5 1.5q3 1 6 3t3 6q0 6 -6.5 10.5t-13.5 6.5q-5 2 -9.5 3t-7.5 1l-36 5
q5 16 9 31t9 30q4 14 8.5 29t8.5 30l62 -18l-16 -53q24 -10 40 -29t16 -46v-1zM314 354h-70.5h-70.5q-33 0 -47.5 -24t-17.5 -53v-6v-6q0 -38 10.5 -69t31.5 -52q20 -19 51 -29.5t75 -10.5h37v-104h-37q-66 0 -115 18.5t-83 51.5q-37 37 -55.5 87t-18.5 108q0 7 0.5 13.5
t0.5 13.5q4 30 14.5 58.5t29.5 51.5q22 26 52.5 41t71.5 15h141v-104v0z" />
    <glyph glyph-name="eacute" unicode="&#xe9;" horiz-adv-x="453" 
d="M413 213h-129.5t-129.5 1q5 -21 14 -38.5t22 -30.5q25 -24 58 -32t67 -9q12 -1 24 -0.5t23 0.5h13h12v-104h-70q-66 0 -115 18.5t-84 51.5q-28 29 -45.5 65t-23.5 79h-48v104h50q13 61 55.5 100.5t107.5 39.5h15.5h14.5q81 0 125 -58t44 -135v-25.5v-26.5v0zM299 317
q-8 18 -21.5 27.5t-33.5 9.5h-14.5h-15.5q-20 0 -33.5 -9.5t-21.5 -27.5h140v0zM350 558l-90 -85h-65l57 85h98v0z" />
    <glyph glyph-name="egrave" unicode="&#xe8;" horiz-adv-x="453" 
d="M413 213h-129.5t-129.5 1q5 -21 14 -38.5t22 -30.5q25 -24 58 -32t67 -9q12 -1 24 -0.5t23 0.5h13h12v-104h-70q-66 0 -115 18.5t-84 51.5q-28 29 -45.5 65t-23.5 79h-48v104h50q13 61 55.5 100.5t107.5 39.5h15.5h14.5q81 0 125 -58t44 -135v-25.5v-26.5v0zM299 317
q-8 18 -21.5 27.5t-33.5 9.5h-14.5h-15.5q-20 0 -33.5 -9.5t-21.5 -27.5h140v0zM257 477h-65l-90 85h98l57 -85v0z" />
    <glyph glyph-name="ecircumflex" unicode="&#xea;" horiz-adv-x="453" 
d="M413 213h-129.5t-129.5 1q5 -21 14 -38.5t22 -30.5q25 -24 58 -32t67 -9q12 -1 24 -0.5t23 0.5h13h12v-104h-70q-66 0 -115 18.5t-84 51.5q-28 29 -45.5 65t-23.5 79h-48v104h50q13 61 55.5 100.5t107.5 39.5h15.5h14.5q81 0 125 -58t44 -135v-25.5v-26.5v0zM299 317
q-8 18 -21.5 27.5t-33.5 9.5h-14.5h-15.5q-20 0 -33.5 -9.5t-21.5 -27.5h140v0zM346 477h-62l-58 32l-57 -32h-62l119 102l120 -102v0z" />
    <glyph glyph-name="edieresis" unicode="&#xeb;" horiz-adv-x="453" 
d="M413 213h-129.5t-129.5 1q5 -21 14 -38.5t22 -30.5q25 -24 58 -32t67 -9q12 -1 24 -0.5t23 0.5h13h12v-104h-70q-66 0 -115 18.5t-84 51.5q-28 29 -45.5 65t-23.5 79h-48v104h50q13 61 55.5 100.5t107.5 39.5h15.5h14.5q81 0 125 -58t44 -135v-25.5v-26.5v0zM299 317
q-8 18 -21.5 27.5t-33.5 9.5h-14.5h-15.5q-20 0 -33.5 -9.5t-21.5 -27.5h140v0zM223 514q0 -16 -11 -27t-28 -11q-16 0 -27 11t-11 27t11 27.5t27 11.5q17 0 28 -11.5t11 -27.5v0zM311 514q0 -16 -11 -27t-28 -11q-16 0 -27 11t-11 27t11 27.5t27 11.5q17 0 28 -11.5
t11 -27.5v0z" />
    <glyph glyph-name="iacute" unicode="&#xed;" horiz-adv-x="159" 
d="M122 0h-104v459h104v-459v0zM192 560l-90 -85h-65l57 85h98v0z" />
    <glyph glyph-name="igrave" unicode="&#xec;" horiz-adv-x="159" 
d="M122 0h-104v459h104v-459v0zM103 477h-65l-90 85h98l57 -85v0z" />
    <glyph glyph-name="icircumflex" unicode="&#xee;" horiz-adv-x="159" 
d="M122 0h-104v459h104v-459v0zM193 474h-62l-58 32l-57 -32h-62l119 102l120 -102v0z" />
    <glyph glyph-name="idieresis" unicode="&#xef;" horiz-adv-x="159" 
d="M122 0h-104v459h104v-459v0zM64 511q0 -16 -11 -27t-28 -11q-16 0 -26.5 11t-10.5 27t10.5 27.5t26.5 11.5q17 0 28 -11.5t11 -27.5v0zM152 511q0 -16 -11 -27t-28 -11q-16 0 -27 11t-11 27t11 27.5t27 11.5q17 0 28 -11.5t11 -27.5v0z" />
    <glyph glyph-name="ntilde" unicode="&#xf1;" horiz-adv-x="412" 
d="M380 0h-104v271q0 35 -24 59t-59 24q-34 0 -58.5 -24t-24.5 -59v-271h-104v459h104v-20q19 9 40 14t43 5q77 0 132 -55t55 -132v-271v0zM296 564q0 -6 -1 -13.5t-3 -14.5q-3 -13 -8.5 -24.5t-13.5 -19.5q-8 -10 -18.5 -14.5t-21.5 -4.5q-3 0 -5.5 0.5t-4.5 0.5
q-2 1 -4.5 1.5t-5.5 1.5q-18 7 -36 13.5t-36 13.5q-2 -5 -4 -11t-2 -12h-65q0 6 1 13.5t3 14.5q3 13 9 24.5t13 19.5q8 10 18.5 14.5t21.5 4.5q3 0 5.5 -0.5t4.5 -0.5q2 -1 4.5 -1.5t5.5 -1.5q18 -7 36 -13.5t36 -13.5q2 3 3.5 7.5t1.5 9.5q1 1 1 3v3h65v0z" />
    <glyph glyph-name="oacute" unicode="&#xf3;" horiz-adv-x="450" 
d="M361 67q-28 -32 -65 -48.5t-76 -18.5h-4.5h-4.5h-4.5h-4.5q-39 2 -76 19t-65 48q-29 34 -43 76t-14 85q0 87 54 158.5t153 71.5q100 0 154 -72t54 -159q-1 -43 -15 -84.5t-43 -75.5v0zM283 136q14 17 22 39t9 45v5v4q0 47 -25.5 86t-77.5 39t-78 -39.5t-25 -86.5
q0 -25 7.5 -49.5t23.5 -42.5q14 -16 33.5 -24t39.5 -7q20 0 39 7.5t32 23.5v0zM334 558l-90 -85h-65l57 85h98v0z" />
    <glyph glyph-name="ograve" unicode="&#xf2;" horiz-adv-x="450" 
d="M361 67q-28 -32 -65 -48.5t-76 -18.5h-4.5h-4.5h-4.5h-4.5q-39 2 -76 19t-65 48q-29 34 -43 76t-14 85q0 87 54 158.5t153 71.5q100 0 154 -72t54 -159q-1 -43 -15 -84.5t-43 -75.5v0zM283 136q14 17 22 39t9 45v5v4q0 47 -25.5 86t-77.5 39t-78 -39.5t-25 -86.5
q0 -25 7.5 -49.5t23.5 -42.5q14 -16 33.5 -24t39.5 -7q20 0 39 7.5t32 23.5v0zM243 475h-65l-90 85h98l57 -85v0z" />
    <glyph glyph-name="ocircumflex" unicode="&#xf4;" horiz-adv-x="450" 
d="M361 67q-28 -32 -65 -48.5t-76 -18.5h-4.5h-4.5h-4.5h-4.5q-39 2 -76 19t-65 48q-29 34 -43 76t-14 85q0 87 54 158.5t153 71.5q100 0 154 -72t54 -159q-1 -43 -15 -84.5t-43 -75.5v0zM283 136q14 17 22 39t9 45v5v4q0 47 -25.5 86t-77.5 39t-78 -39.5t-25 -86.5
q0 -25 7.5 -49.5t23.5 -42.5q14 -16 33.5 -24t39.5 -7q20 0 39 7.5t32 23.5v0zM331 471h-62l-58 32l-57 -32h-62l119 102l120 -102v0z" />
    <glyph glyph-name="odieresis" unicode="&#xf6;" horiz-adv-x="450" 
d="M361 67q-28 -32 -65 -48.5t-76 -18.5h-4.5h-4.5h-4.5h-4.5q-39 2 -76 19t-65 48q-29 34 -43 76t-14 85q0 87 54 158.5t153 71.5q100 0 154 -72t54 -159q-1 -43 -15 -84.5t-43 -75.5v0zM283 136q14 17 22 39t9 45v5v4q0 47 -25.5 86t-77.5 39t-78 -39.5t-25 -86.5
q0 -25 7.5 -49.5t23.5 -42.5q14 -16 33.5 -24t39.5 -7q20 0 39 7.5t32 23.5v0zM205 511q0 -16 -11 -27t-28 -11q-16 0 -27 11t-11 27t11 27.5t27 11.5q17 0 28 -11.5t11 -27.5v0zM293 511q0 -16 -11 -27t-28 -11q-16 0 -27 11t-11 27t11 27.5t27 11.5q17 0 28 -11.5
t11 -27.5v0z" />
    <glyph glyph-name="otilde" unicode="&#xf5;" horiz-adv-x="450" 
d="M361 67q-28 -32 -65 -48.5t-76 -18.5h-4.5h-4.5h-4.5h-4.5q-39 2 -76 19t-65 48q-29 34 -43 76t-14 85q0 87 54 158.5t153 71.5q100 0 154 -72t54 -159q-1 -43 -15 -84.5t-43 -75.5v0zM283 136q14 17 22 39t9 45v5v4q0 47 -25.5 86t-77.5 39t-78 -39.5t-25 -86.5
q0 -25 7.5 -49.5t23.5 -42.5q14 -16 33.5 -24t39.5 -7q20 0 39 7.5t32 23.5v0zM323 567q0 -6 -1 -13.5t-3 -14.5q-3 -13 -8.5 -24.5t-13.5 -19.5q-8 -10 -18.5 -14.5t-21.5 -4.5q-3 0 -5.5 0.5t-4.5 0.5q-2 1 -4.5 1.5t-5.5 1.5q-18 7 -36 13.5t-36 13.5q-2 -5 -4 -11
t-2 -12h-65q0 6 1 13.5t3 14.5q3 13 9 24.5t13 19.5q8 10 18.5 14.5t21.5 4.5q3 0 5.5 -0.5t4.5 -0.5q2 -1 4.5 -1.5t5.5 -1.5q18 -7 36 -13.5t36 -13.5q2 3 3.5 7.5t1.5 9.5q1 1 1 3v3h65v0z" />
    <glyph glyph-name="uacute" unicode="&#xfa;" horiz-adv-x="362" 
d="M332 0h-141q-77 0 -132.5 55t-55.5 133v271h104v-271q0 -34 25 -59t59 -25h37v355h104v-459v0zM300 560l-90 -85h-65l57 85h98v0z" />
    <glyph glyph-name="ugrave" unicode="&#xf9;" horiz-adv-x="362" 
d="M332 0h-141q-77 0 -132.5 55t-55.5 133v271h104v-271q0 -34 25 -59t59 -25h37v355h104v-459v0zM209 475h-65l-90 85h98l57 -85v0z" />
    <glyph glyph-name="ucircumflex" unicode="&#xfb;" horiz-adv-x="362" 
d="M332 0h-141q-77 0 -132.5 55t-55.5 133v271h104v-271q0 -34 25 -59t59 -25h37v355h104v-459v0zM292 477h-62l-58 32l-57 -32h-62l119 102l120 -102v0z" />
    <glyph glyph-name="udieresis" unicode="&#xfc;" horiz-adv-x="362" 
d="M332 0h-141q-77 0 -132.5 55t-55.5 133v271h104v-271q0 -34 25 -59t59 -25h37v355h104v-459v0zM163 511q0 -16 -11 -27t-28 -11q-16 0 -27 11t-11 27t11 27.5t27 11.5q17 0 28 -11.5t11 -27.5v0zM251 511q0 -16 -11 -27t-28 -11q-16 0 -27 11t-11 27t11 27.5t27 11.5
q17 0 28 -11.5t11 -27.5v0z" />
    <glyph glyph-name="dagger" unicode="&#x2020;" horiz-adv-x="500" 
 />
    <glyph glyph-name="glyph131" horiz-adv-x="500" 
 />
    <glyph glyph-name="cent" unicode="&#xa2;" horiz-adv-x="352" 
d="M336 171q-24 -15 -50.5 -22t-53.5 -7h-9.5t-9.5 1l69 -143h-153l69 145q-33 5 -64 21.5t-56 42.5q-29 31 -44.5 69.5t-17.5 78.5v5v6q0 43 15.5 84t46.5 74q26 27 57.5 43.5t65.5 21.5l-72 144h153l-72 -143q3 0 5.5 0.5t4.5 0.5h4.5h5.5q28 0 54.5 -7.5t51.5 -21.5
l-53 -89q-12 8 -25.5 11t-27.5 3q-21 0 -41 -8.5t-36 -25.5q-16 -18 -24.5 -41t-8.5 -47t8.5 -46.5t24.5 -40.5q17 -16 37 -25t42 -9q14 0 26.5 3.5t24.5 10.5l53 -89v0z" />
    <glyph glyph-name="sterling" unicode="&#xa3;" horiz-adv-x="505" 
d="M482 678l-53 -90q-8 5 -16.5 8.5t-16.5 5.5q-9 3 -17.5 4t-16.5 1q-55 0 -96.5 -44t-41.5 -108v-72h113v-104h-113v-92q0 -22 -5 -43t-14 -40h254v-104h-436v104h15q34 0 58 24.5t24 58.5v92h-81v104h81v72q0 109 74.5 182.5t170.5 73.5q10 0 19.5 -1t19.5 -2
q20 -4 39.5 -11t38.5 -19v0z" />
    <glyph glyph-name="section" unicode="&#xa7;" horiz-adv-x="500" 
 />
    <glyph glyph-name="glyph135" horiz-adv-x="270" 
d="M258 352q0 -49 -36.5 -85.5t-87.5 -36.5q-49 0 -85.5 36.5t-36.5 85.5q0 51 36.5 87.5t85.5 36.5q51 0 87.5 -36.5t36.5 -87.5v0z" />
    <glyph glyph-name="paragraph" unicode="&#xb6;" horiz-adv-x="500" 
 />
    <glyph glyph-name="germandbls" unicode="&#xdf;" horiz-adv-x="359" 
d="M311 601q8 -19 12 -39t4 -40q0 -52 -21.5 -101.5t-52.5 -90.5q-2 -3 -3 -6t-1 -7q0 -2 0.5 -4t0.5 -4q2 -6 4.5 -11.5t5.5 -9.5q1 -2 2 -3.5t2 -2.5q4 -4 8.5 -9t8.5 -9q4 -5 8.5 -9.5t8.5 -9.5q20 -21 29 -46.5t9 -51.5q0 -43 -25 -82t-71 -56q-20 -7 -40 -8t-41 -1h-3
h-4v104h11h13h5.5h4.5q9 1 17.5 3t14.5 8q7 6 10.5 14.5t3.5 17.5q0 2 -0.5 4t-0.5 4q-1 5 -3.5 11t-6.5 10q-8 9 -16.5 18t-17.5 18q-19 22 -30 49.5t-11 55.5q0 20 6 40t19 36q28 37 40 69.5t12 58.5v6t-1 5q-2 21 -14 38.5t-36 17.5q-23 0 -41 -14.5t-18 -39.5v-534h-104
v534q0 68 48.5 113t114.5 45q46 0 83 -25t56 -66v0z" />
    <glyph glyph-name="registered" unicode="&#xae;" horiz-adv-x="500" 
 />
    <glyph glyph-name="copyright" unicode="&#xa9;" horiz-adv-x="500" 
 />
    <glyph glyph-name="trademark" unicode="&#x2122;" horiz-adv-x="500" 
 />
    <glyph glyph-name="acute" unicode="&#xb4;" horiz-adv-x="285" 
d="M220 800l-90 -85h-65l57 85h98v0z" />
    <glyph glyph-name="dieresis" unicode="&#xa8;" horiz-adv-x="175" 
d="M85 754q0 -16 -11 -27t-28 -11q-16 0 -27 11t-11 27t11 27.5t27 11.5q17 0 28 -11.5t11 -27.5v0zM173 754q0 -16 -11 -27t-28 -11q-16 0 -27 11t-11 27t11 27.5t27 11.5q17 0 28 -11.5t11 -27.5v0z" />
    <glyph glyph-name="notequal" unicode="&#x2260;" horiz-adv-x="500" 
 />
    <glyph glyph-name="AE" unicode="&#xc6;" horiz-adv-x="752" 
d="M724 0h-66h-48h-50.5h-73.5q-64 0 -110.5 46.5t-46.5 110.5v33.5v32.5h-166v-223h-104v223h-50v104h50v10v10q0 71 27.5 134t74.5 110t109.5 74t133.5 27h80h80h80h80v-104h-291v-261h254v-104h-254v-32.5v-33.5q0 -22 15.5 -37.5t37.5 -15.5h59.5h59.5h59.5h59.5v-104v0
zM329 327v249q-73 -25 -119.5 -88t-46.5 -141v-10v-10h166v0z" />
    <glyph glyph-name="Oslash" unicode="&#xd8;" horiz-adv-x="676" 
d="M674 610l-110 -109q5 -16 9.5 -33t7.5 -34q4 -22 6 -44.5t2 -43.5t-2 -43.5t-6 -45.5q-17 -96 -76 -176.5t-168 -80.5q-60 0 -104.5 26.5t-74.5 67.5l-85 -85l-73 74l109 109q-5 14 -8.5 29t-6.5 29q-5 25 -7.5 49t-2.5 47q0 21 2 42.5t6 43.5q17 98 75.5 179t169.5 81
q59 0 103.5 -26t74.5 -67l85 84l74 -73v0zM485 346q0 20 -2.5 43.5t-7.5 47.5q-13 57 -45.5 104t-92.5 47t-93 -47t-46 -104q-5 -24 -7.5 -47.5t-2.5 -43.5t2.5 -44t8.5 -48q13 -56 45.5 -103t92.5 -47q59 0 91.5 47t45.5 103q6 24 8.5 48t2.5 44v0z" />
    <glyph glyph-name="infinity" unicode="&#x221e;" 
 />
    <glyph glyph-name="plusminus" unicode="&#xb1;" horiz-adv-x="500" 
 />
    <glyph glyph-name="lessequal" unicode="&#x2264;" horiz-adv-x="500" 
 />
    <glyph glyph-name="greaterequal" unicode="&#x2265;" horiz-adv-x="500" 
 />
    <glyph glyph-name="yen" unicode="&#xa5;" horiz-adv-x="562" 
d="M537 227h-137q-14 -13 -31 -23t-36 -16v-188h-104v188q-19 6 -36 16t-31 23h-136v104h83q-1 6 -1.5 12t-0.5 11v7h-81v104h81v228h104v-339q0 -14 5.5 -26.5t15.5 -22.5q9 -10 22 -15.5t27 -5.5t27 5.5t23 15.5q9 10 14.5 22.5t5.5 26.5v339h104v-228h82v-104h-82v-7v-11
t-1 -12h83v-104v0z" />
    <glyph glyph-name="mu" unicode="&#xb5;" horiz-adv-x="500" 
 />
    <glyph glyph-name="partialdiff" unicode="&#x2202;" horiz-adv-x="500" 
 />
    <glyph glyph-name="summation" unicode="&#x3a3;" horiz-adv-x="500" 
 />
    <glyph glyph-name="product" unicode="&#x220f;" 
 />
    <glyph glyph-name="pi" unicode="&#x3c0;" horiz-adv-x="500" 
 />
    <glyph glyph-name="integral" unicode="&#x222b;" 
 />
    <glyph glyph-name="ordfeminine" unicode="&#xaa;" horiz-adv-x="367" 
d="M350 357h-52v-114h-104v114h-73v-114h-104v220q0 47 18 89t49 73q32 32 73.5 49.5t88.5 17.5h52v-231h52v-104v0zM194 461v116q-10 -4 -19 -11t-17 -15q-17 -16 -27 -39t-10 -49v-2h73v0z" />
    <glyph glyph-name="ordmasculine" unicode="&#xba;" horiz-adv-x="410" 
d="M392 462q0 -6 -0.5 -12.5t-0.5 -13.5q-7 -76 -53 -140t-133 -64q-86 0 -132 64t-53 140q0 7 -0.5 13.5t-0.5 12.5t0.5 12.5t0.5 13.5q7 76 52.5 140t132.5 64q88 0 134.5 -65.5t51.5 -143.5q1 -5 1 -10.5v-10.5v0zM205 336q42 0 62.5 39.5t20.5 86.5t-21 86.5t-62 39.5
t-62 -39.5t-20 -87.5v-1.5v-1.5q1 -46 21 -84t61 -38v0z" />
    <glyph glyph-name="Omega" unicode="&#x3a9;" horiz-adv-x="500" 
 />
    <glyph glyph-name="ae" unicode="&#xe6;" horiz-adv-x="692" 
d="M660 213h-128.5h-129.5q5 -21 14 -38t22 -31q25 -24 58 -32t69 -9h8h8h13.5t13.5 1h13.5h12.5v-104h-9.5h-8.5q-59 0 -117 6t-109 44v-50h-116h-116q-60 0 -93.5 43t-33.5 98q0 41 13 76.5t40 61.5q24 23 58.5 36t80.5 13h27.5h27.5q-7 12 -19.5 19t-26.5 7h-30.5h-30.5
h-30.5h-30.5v104h30.5h30.5h30.5h30.5q33 0 62 -13t51 -35q21 22 50 35t66 13h15.5h14.5q82 0 125.5 -58.5t43.5 -134.5v-26v-26v0zM286 104v121h-31.5h-31.5q-24 0 -40.5 -5.5t-26.5 -15.5t-15.5 -26t-5.5 -37v-6t1 -6q1 -9 6 -17t16 -8h64h64v0zM546 317q-7 17 -21 27
t-34 10h-14.5h-15.5q-19 0 -33 -9.5t-22 -27.5h140v0z" />
    <glyph glyph-name="oslash" unicode="&#xf8;" horiz-adv-x="505" 
d="M511 413l-74 -74q11 -25 17 -53t6 -57q0 -44 -14 -86.5t-43 -75.5q-27 -31 -65 -49t-85 -18q-34 0 -64 10t-54 28l-66 -66l-73 73l74 74q-10 21 -16 44.5t-7 47.5q-1 5 -1 9.5v9.5q0 44 14.5 86.5t42.5 74.5q27 31 65.5 49t84.5 18q35 0 64.5 -10t53.5 -28l66 66l74 -73
v0zM356 229q0 47 -25 86t-78 39q-22 0 -40.5 -8.5t-31.5 -22.5q-16 -18 -23.5 -43t-7.5 -51t8 -51t23 -43q14 -16 33.5 -24t39.5 -7h4h4q17 2 34 9.5t29 21.5q15 17 23 41.5t8 52.5v0z" />
    <glyph glyph-name="questiondown" unicode="&#xbf;" horiz-adv-x="334" 
d="M69 109q5 5 10 10.5t11 11.5q17 18 32 38.5t15 47.5v1.5v1.5q-1 17 -7.5 31.5t-18.5 25.5l69 76q29 -25 44 -58.5t17 -69.5v-4.5v-4.5q0 -34 -12 -66.5t-36 -58.5q-4 -4 -8 -8.5t-8 -8.5q-1 -1 -2.5 -2t-2.5 -2q-18 -19 -32.5 -39t-14.5 -47v-1.5v-1.5q1 -50 36 -64
t76 -15h3.5h2.5q9 0 17.5 0.5t16.5 0.5t15.5 0.5t14.5 0.5v-105q-8 1 -16.5 1t-16.5 -1h-17.5h-16.5q-43 0 -83.5 8.5t-75.5 40.5q-30 28 -45.5 63.5t-15.5 73.5q1 33 13 65t36 59v0zM118 430q0 25 18 43t43 18q26 0 44 -18t18 -43t-18 -43.5t-44 -18.5q-25 0 -43 18.5
t-18 43.5v0z" />
    <glyph glyph-name="exclamdown" unicode="&#xa1;" horiz-adv-x="135" 
d="M19 346h104v-547h-104v547v0zM9 431q0 25 18.5 43t43.5 18t43 -18t18 -43t-18 -43.5t-43 -18.5t-43.5 18.5t-18.5 43.5v0z" />
    <glyph glyph-name="logicalnot" unicode="&#xac;" horiz-adv-x="500" 
 />
    <glyph glyph-name="radical" unicode="&#x221a;" horiz-adv-x="500" 
 />
    <glyph glyph-name="florin" unicode="&#x192;" horiz-adv-x="500" 
 />
    <glyph glyph-name="approxequal" unicode="&#x2248;" horiz-adv-x="500" 
 />
    <glyph glyph-name="Delta" unicode="&#x2206;" horiz-adv-x="500" 
 />
    <glyph glyph-name="guillemotleft" unicode="&#xab;" horiz-adv-x="343" 
d="M208 244l-55 -55l-143 144l143 143l55 -55l-88 -88l88 -89v0zM338 244l-55 -55l-143 144l143 143l55 -55l-88 -88l88 -89v0z" />
    <glyph glyph-name="guillemotright" unicode="&#xbb;" horiz-adv-x="343" 
d="M10 244l88 89l-88 88l55 55l143 -143l-143 -144l-55 55v0zM140 244l88 89l-88 88l55 55l143 -143l-143 -144l-55 55v0z" />
    <glyph glyph-name="ellipsis" unicode="&#x2026;" horiz-adv-x="500" 
 />
    <glyph glyph-name="Agrave" unicode="&#xc0;" horiz-adv-x="498" 
d="M474 207h-72v-207h-105v207h-190v-207h-103v348q0 141 101 243t244 102h53v-382h72v-104v0zM297 311v272q-82 -18 -136 -84t-54 -151v-37h190v0zM359 707h-65l-90 85h98l57 -85v0z" />
    <glyph glyph-name="Atilde" unicode="&#xc3;" horiz-adv-x="498" 
d="M474 207h-72v-207h-105v207h-190v-207h-103v348q0 141 101 243t244 102h53v-382h72v-104v0zM297 311v272q-82 -18 -136 -84t-54 -151v-37h190v0zM410 799q0 -6 -1 -13.5t-3 -14.5q-3 -13 -8.5 -24.5t-13.5 -19.5q-8 -10 -18.5 -14.5t-21.5 -4.5q-3 0 -5.5 0.5t-4.5 0.5
q-2 1 -4.5 1.5t-5.5 1.5q-18 7 -36 13.5t-36 13.5q-2 -5 -4 -11t-2 -12h-65q0 6 1 13.5t3 14.5q3 13 9 24.5t13 19.5q8 10 18.5 14.5t21.5 4.5q3 0 5.5 -0.5t4.5 -0.5q2 -1 4.5 -1.5t5.5 -1.5q18 -7 36 -13.5t36 -13.5q2 3 3.5 7.5t1.5 9.5q1 1 1 3v3h65v0z" />
    <glyph glyph-name="Otilde" unicode="&#xd5;" horiz-adv-x="583" 
d="M554 346q0 -12 -0.5 -24t-2.5 -25q-11 -111 -78.5 -204t-193.5 -93t-193 93t-78 204q-2 13 -2.5 25t-0.5 24t0.5 24t2.5 25q11 111 78 204t193 93q128 0 195 -94t78 -207q1 -12 1.5 -23t0.5 -22v0zM450 346q0 16 -1.5 33.5t-5.5 35.5q-12 65 -51 119t-113 54t-113 -55
t-51 -120q-3 -17 -4.5 -34t-1.5 -33t1.5 -33.5t5.5 -35.5q12 -65 51 -119t112 -54q74 0 113 54t51 119q4 18 5.5 35.5t1.5 33.5v0zM383 795q0 -6 -1 -13.5t-3 -14.5q-3 -13 -8.5 -24.5t-13.5 -19.5q-8 -10 -18.5 -14.5t-21.5 -4.5q-3 0 -5.5 0.5t-4.5 0.5q-2 1 -4.5 1.5
t-5.5 1.5q-18 7 -36 13.5t-36 13.5q-2 -5 -4 -11t-2 -12h-65q0 6 1 13.5t3 14.5q3 13 9 24.5t13 19.5q8 10 18.5 14.5t21.5 4.5q3 0 5.5 -0.5t4.5 -0.5q2 -1 4.5 -1.5t5.5 -1.5q18 -7 36 -13.5t36 -13.5q2 3 3.5 7.5t1.5 9.5q1 1 1 3v3h65v0z" />
    <glyph glyph-name="OE" unicode="&#x152;" horiz-adv-x="886" 
d="M852 0h-237q-46 0 -83.5 24.5t-57.5 62.5q-38 -43 -87 -65t-100 -22q-56 0 -109.5 26t-91.5 77q-37 49 -55.5 113.5t-18.5 131.5v5.5v5.5q2 63 20.5 123.5t53.5 107.5q38 51 92 77t111 26h5.5h5.5q47 -2 92.5 -24t81.5 -63q20 38 57.5 62t83.5 24h237v-104h-237
q-22 0 -38 -15.5t-16 -37.5v-208h291v-104h-291v-65q0 -22 16 -38t38 -16h237v-104v0zM457 346q0 54 -13.5 101t-39.5 80q-23 31 -54 46.5t-64 14.5h-4h-5q-30 -2 -58.5 -17t-49.5 -44q-27 -35 -40 -83t-13 -99q0 -50 13.5 -97.5t39.5 -82.5q23 -30 54 -45.5t64 -15.5
q32 0 63 15t54 46q10 13 17.5 27.5t14.5 30.5h-41v104h61v5.5t1 4.5v4.5v4.5v0z" />
    <glyph glyph-name="oe" unicode="&#x153;" horiz-adv-x="747" 
d="M713 213h-128.5h-129.5q5 -21 14 -38t22 -31q25 -24 58 -32t69 -9h8h8h13.5t13.5 1h13.5h12.5v-104h-34.5h-35.5h-4h-4q-58 1 -112 20.5t-92 64.5q-30 -42 -74 -63.5t-91 -21.5q-41 0 -80 16.5t-69 50.5q-28 33 -42.5 75.5t-14.5 87.5q0 44 14.5 86.5t42.5 74.5
q29 34 69 50.5t82 16.5q40 0 78 -15.5t66 -46.5q24 31 57 46.5t72 15.5h14.5h14.5q82 0 125.5 -58.5t43.5 -134.5v-26v-26v0zM344 229q0 47 -25 86t-78 39q-52 0 -77.5 -39t-25.5 -86q0 -48 25.5 -86.5t77.5 -38.5q53 0 78 39t25 86v0zM599 317q-7 17 -21 27t-34 10h-14.5
h-14.5q-20 0 -33.5 -9.5t-21.5 -27.5h139v0z" />
    <glyph glyph-name="glyph177" horiz-adv-x="476" 
d="M469 371v-104h-459v104h459v0z" />
    <glyph glyph-name="emdash" unicode="&#x2014;" horiz-adv-x="714" 
d="M704 371v-104h-689v104h689v0z" />
    <glyph glyph-name="quotedblleft" unicode="&#x201c;" horiz-adv-x="259" 
d="M118 661q-7 -17 -22.5 -26.5t-32.5 -9.5q-7 0 -13.5 1.5t-12.5 4.5q-18 8 -26.5 22.5t-8.5 31.5q0 8 1.5 16.5t5.5 15.5q11 24 26.5 41t31.5 25q7 3 13.5 4.5t12.5 1.5q4 0 7.5 -0.5t7.5 -2.5l-20 -44q17 -7 26.5 -23t9.5 -33q0 -7 -1.5 -13t-4.5 -12v0zM248 661
q-7 -17 -22.5 -26.5t-32.5 -9.5q-7 0 -13.5 1.5t-12.5 4.5q-18 8 -26.5 22.5t-8.5 31.5q0 8 1.5 16.5t5.5 15.5q11 24 26.5 41t31.5 25q7 3 13.5 4.5t12.5 1.5q4 0 7.5 -0.5t7.5 -2.5l-20 -44q17 -7 26.5 -23t9.5 -33q0 -7 -1.5 -13t-4.5 -12v0z" />
    <glyph glyph-name="quotedblright" unicode="&#x201d;" horiz-adv-x="255" 
d="M121 691q-11 -24 -26.5 -41t-31.5 -25q-7 -3 -13.5 -4.5t-12.5 -1.5q-4 0 -7.5 1t-7.5 2l20 44q-17 8 -26.5 23.5t-9.5 32.5q0 7 1.5 13t4.5 12q8 17 23 26.5t32 9.5q7 0 13.5 -1.5t12.5 -4.5q18 -7 26.5 -22t8.5 -32q0 -8 -1.5 -16t-5.5 -16v0zM251 691
q-11 -24 -26.5 -41t-31.5 -25q-7 -3 -13.5 -4.5t-12.5 -1.5q-4 0 -7.5 1t-7.5 2l20 44q-17 8 -26.5 23.5t-9.5 32.5q0 7 1.5 13t4.5 12q8 17 23 26.5t32 9.5q7 0 13.5 -1.5t12.5 -4.5q18 -7 26.5 -22t8.5 -32q0 -8 -1.5 -16t-5.5 -16v0z" />
    <glyph glyph-name="quoteleft" unicode="&#x2018;" horiz-adv-x="134" 
d="M118 661q-7 -17 -22.5 -26.5t-32.5 -9.5q-7 0 -13.5 1.5t-12.5 4.5q-18 8 -26.5 22.5t-8.5 31.5q0 8 1.5 16.5t5.5 15.5q11 24 26.5 41t31.5 25q7 3 13.5 4.5t12.5 1.5q4 0 7.5 -0.5t7.5 -2.5l-20 -44q17 -7 26.5 -23t9.5 -33q0 -7 -1.5 -13t-4.5 -12v0z" />
    <glyph glyph-name="quoteright" unicode="&#x2019;" horiz-adv-x="134" 
d="M121 691q-11 -24 -26.5 -41t-31.5 -25q-7 -3 -13.5 -4.5t-12.5 -1.5q-4 0 -7.5 1t-7.5 2l20 44q-17 8 -26.5 23.5t-9.5 32.5q0 7 1.5 13t4.5 12q8 17 23 26.5t32 9.5q7 0 13.5 -1.5t12.5 -4.5q18 -7 26.5 -22t8.5 -32q0 -8 -1.5 -16t-5.5 -16v0z" />
    <glyph glyph-name="divide" unicode="&#xf7;" horiz-adv-x="500" 
 />
    <glyph glyph-name="lozenge" unicode="&#x25ca;" horiz-adv-x="500" 
 />
    <glyph glyph-name="ydieresis" unicode="&#xff;" horiz-adv-x="435" 
d="M434 458l-156 -345q16 -4 33 -6.5t34 -2.5v-104q-28 0 -56 4.5t-54 13.5l-83 -185l-95 43l86 191q-61 47 -99 117.5t-38 153.5v128h104v-128q0 -51 21 -96t57 -77l132 293h114v0zM217 490q0 -16 -11 -27t-28 -11q-16 0 -27 11t-11 27t11 27.5t27 11.5q17 0 28 -11.5
t11 -27.5v0zM305 490q0 -16 -11 -27t-28 -11q-16 0 -27 11t-11 27t11 27.5t27 11.5q17 0 28 -11.5t11 -27.5v0z" />
    <glyph glyph-name="Ydieresis" unicode="&#x178;" horiz-adv-x="536" 
d="M536 692l-180 -396h2h2h1h2v-104q-13 0 -26.5 1.5t-26.5 2.5l-89 -196h-114l103 226q-94 44 -151.5 133t-57.5 195v138h104v-138q0 -74 40.5 -137.5t107.5 -95.5l169 371h114v0zM259 729q0 -16 -11 -27t-28 -11q-16 0 -27 11t-11 27t11 27.5t27 11.5q17 0 28 -11.5
t11 -27.5v0zM347 729q0 -16 -11 -27t-28 -11q-16 0 -27 11t-11 27t11 27.5t27 11.5q17 0 28 -11.5t11 -27.5v0z" />
    <glyph glyph-name="fraction" unicode="&#x2215;" horiz-adv-x="500" 
 />
    <glyph glyph-name="currency" unicode="&#xa4;" horiz-adv-x="622" 
d="M594 648l-53 -89q-20 12 -41.5 19t-42.5 9q-6 0 -11.5 0.5t-10.5 0.5q-43 0 -84.5 -17.5t-73.5 -51.5q-11 -13 -20.5 -26.5t-17.5 -27.5h248l-61 -104h-215v-3.5v-3.5q-1 -2 -1 -3.5v-3.5v-4v-4t0.5 -4t0.5 -4h197l-61 -104h-108q8 -14 17.5 -27.5t20.5 -25.5
q32 -34 73 -51.5t84 -18.5q20 0 39 4t38 11v-109q-19 -4 -37.5 -6.5t-37.5 -2.5q-64 0 -126 26t-109 76q-25 28 -44 59t-31 65h-95l62 104h14v3.5v3.5q-1 2 -1 3.5v3.5v4v4t0.5 4t0.5 4h-79l62 104h36q12 35 31 66t44 59q47 50 107.5 76t124.5 26h12t12 -1q35 -2 70 -13
t67 -30v0z" />
    <glyph glyph-name="currency" unicode="&#x20ac;" horiz-adv-x="622" 
d="M594 648l-53 -89q-20 12 -41.5 19t-42.5 9q-6 0 -11.5 0.5t-10.5 0.5q-43 0 -84.5 -17.5t-73.5 -51.5q-11 -13 -20.5 -26.5t-17.5 -27.5h248l-61 -104h-215v-3.5v-3.5q-1 -2 -1 -3.5v-3.5v-4v-4t0.5 -4t0.5 -4h197l-61 -104h-108q8 -14 17.5 -27.5t20.5 -25.5
q32 -34 73 -51.5t84 -18.5q20 0 39 4t38 11v-109q-19 -4 -37.5 -6.5t-37.5 -2.5q-64 0 -126 26t-109 76q-25 28 -44 59t-31 65h-95l62 104h14v3.5v3.5q-1 2 -1 3.5v3.5v4v4t0.5 4t0.5 4h-79l62 104h36q12 35 31 66t44 59q47 50 107.5 76t124.5 26h12t12 -1q35 -2 70 -13
t67 -30v0z" />
    <glyph glyph-name="guilsinglleft" unicode="&#x2039;" horiz-adv-x="218" 
d="M208 244l-55 -55l-143 144l143 143l55 -55l-88 -88l88 -89v0z" />
    <glyph glyph-name="guilsinglright" unicode="&#x203a;" horiz-adv-x="218" 
d="M10 244l88 89l-88 88l55 55l143 -143l-143 -144l-55 55v0z" />
    <glyph glyph-name="fi" unicode="&#xf001;" horiz-adv-x="500" 
 />
    <glyph glyph-name="fl" unicode="&#xf002;" horiz-adv-x="500" 
 />
    <glyph glyph-name="daggerdbl" unicode="&#x2021;" horiz-adv-x="500" 
 />
    <glyph glyph-name="periodcentered" unicode="&#x2219;" horiz-adv-x="135" 
d="M129 371q0 -25 -18 -43t-44 -18q-25 0 -43 18t-18 43q0 26 18 44t43 18q26 0 44 -18t18 -44v0z" />
    <glyph glyph-name="quotesinglbase" unicode="&#x201a;" horiz-adv-x="134" 
d="M121 31q-11 -24 -26.5 -40.5t-31.5 -24.5q-7 -3 -13.5 -4.5t-12.5 -1.5q-4 0 -7.5 0.5t-7.5 2.5l20 43q-17 8 -26.5 23.5t-9.5 32.5q0 7 1.5 13t4.5 12q8 17 23 26.5t32 9.5q7 0 13.5 -1.5t12.5 -4.5q18 -7 26.5 -22t8.5 -32q0 -8 -1.5 -16t-5.5 -16v0z" />
    <glyph glyph-name="quotedblbase" unicode="&#x201e;" horiz-adv-x="263" 
d="M128 31q-11 -24 -26.5 -40.5t-31.5 -24.5q-7 -3 -13.5 -4.5t-12.5 -1.5q-4 0 -7.5 0.5t-7.5 2.5l20 43q-17 8 -26.5 23.5t-9.5 32.5q0 7 1.5 13t4.5 12q8 17 23 26.5t32 9.5q7 0 13.5 -1.5t12.5 -4.5q18 -7 26.5 -22t8.5 -32q0 -8 -1.5 -16t-5.5 -16v0zM258 31
q-11 -24 -26.5 -40.5t-31.5 -24.5q-7 -3 -13.5 -4.5t-12.5 -1.5q-4 0 -7.5 0.5t-7.5 2.5l20 43q-17 8 -26.5 23.5t-9.5 32.5q0 7 1.5 13t4.5 12q8 17 23 26.5t32 9.5q7 0 13.5 -1.5t12.5 -4.5q18 -7 26.5 -22t8.5 -32q0 -8 -1.5 -16t-5.5 -16v0z" />
    <glyph glyph-name="perthousand" unicode="&#x2030;" horiz-adv-x="500" 
 />
    <glyph glyph-name="Acircumflex" unicode="&#xc2;" horiz-adv-x="498" 
d="M474 207h-72v-207h-105v207h-190v-207h-103v348q0 141 101 243t244 102h53v-382h72v-104v0zM297 311v272q-82 -18 -136 -84t-54 -151v-37h190v0zM403 714h-62l-58 32l-57 -32h-62l119 102l120 -102v0z" />
    <glyph glyph-name="Ecircumflex" unicode="&#xca;" horiz-adv-x="486" 
d="M451 0h-239q-85 0 -146 61t-61 146q0 48 22 91.5t60 72.5q-24 26 -37.5 59.5t-13.5 70.5q0 79 56 135.5t135 56.5h217v-104h-217q-36 0 -61.5 -26t-25.5 -62t25.5 -62t61.5 -26h157v-104h-157q-25 0 -46.5 -5t-41.5 -25q-13 -13 -20 -28.5t-9 -30.5q-1 -4 -1 -7v-6
q1 -39 29 -71t74 -32h239v-104v0zM424 711h-62l-58 32l-57 -32h-62l119 102l120 -102v0z" />
    <glyph glyph-name="Aacute" unicode="&#xc1;" horiz-adv-x="498" 
d="M474 207h-72v-207h-105v207h-190v-207h-103v348q0 141 101 243t244 102h53v-382h72v-104v0zM297 311v272q-82 -18 -136 -84t-54 -151v-37h190v0zM406 788l-90 -85h-65l57 85h98v0z" />
    <glyph glyph-name="Edieresis" unicode="&#xcb;" horiz-adv-x="486" 
d="M451 0h-239q-85 0 -146 61t-61 146q0 48 22 91.5t60 72.5q-24 26 -37.5 59.5t-13.5 70.5q0 79 56 135.5t135 56.5h217v-104h-217q-36 0 -61.5 -26t-25.5 -62t25.5 -62t61.5 -26h157v-104h-157q-25 0 -46.5 -5t-41.5 -25q-13 -13 -20 -28.5t-9 -30.5q-1 -4 -1 -7v-6
q1 -39 29 -71t74 -32h239v-104v0zM284 745q0 -16 -11 -27t-28 -11q-16 0 -27 11t-11 27t11 27.5t27 11.5q17 0 28 -11.5t11 -27.5v0zM372 745q0 -16 -11 -27t-28 -11q-16 0 -27 11t-11 27t11 27.5t27 11.5q17 0 28 -11.5t11 -27.5v0z" />
    <glyph glyph-name="Egrave" unicode="&#xc8;" horiz-adv-x="486" 
d="M451 0h-239q-85 0 -146 61t-61 146q0 48 22 91.5t60 72.5q-24 26 -37.5 59.5t-13.5 70.5q0 79 56 135.5t135 56.5h217v-104h-217q-36 0 -61.5 -26t-25.5 -62t25.5 -62t61.5 -26h157v-104h-157q-25 0 -46.5 -5t-41.5 -25q-13 -13 -20 -28.5t-9 -30.5q-1 -4 -1 -7v-6
q1 -39 29 -71t74 -32h239v-104v0zM335 707h-65l-90 85h98l57 -85v0z" />
    <glyph glyph-name="Iacute" unicode="&#xcd;" horiz-adv-x="136" 
d="M105 0h-104v693h104v-693v0zM170 792l-90 -85h-65l57 85h98v0z" />
    <glyph glyph-name="Icircumflex" unicode="&#xce;" horiz-adv-x="136" 
d="M105 0h-104v693h104v-693v0zM172 705h-62l-58 32l-57 -32h-62l119 102l120 -102v0z" />
    <glyph glyph-name="Idieresis" unicode="&#xcf;" horiz-adv-x="136" 
d="M105 0h-104v693h104v-693v0zM49 747q0 -16 -11 -27t-28 -11q-15 0 -26 11t-11 27t11 27.5t26 11.5q17 0 28 -11.5t11 -27.5v0zM137 747q0 -16 -11 -27t-28 -11q-16 0 -27 11t-11 27t11 27.5t27 11.5q17 0 28 -11.5t11 -27.5v0z" />
    <glyph glyph-name="Igrave" unicode="&#xcc;" horiz-adv-x="136" 
d="M105 0h-104v693h104v-693v0zM91 709h-65l-90 85h98l57 -85v0z" />
    <glyph glyph-name="Oacute" unicode="&#xd3;" horiz-adv-x="583" 
d="M554 346q0 -12 -0.5 -24t-2.5 -25q-11 -111 -78.5 -204t-193.5 -93t-193 93t-78 204q-2 13 -2.5 25t-0.5 24t0.5 24t2.5 25q11 111 78 204t193 93q128 0 195 -94t78 -207q1 -12 1.5 -23t0.5 -22v0zM450 346q0 16 -1.5 33.5t-5.5 35.5q-12 65 -51 119t-113 54t-113 -55
t-51 -120q-3 -17 -4.5 -34t-1.5 -33t1.5 -33.5t5.5 -35.5q12 -65 51 -119t112 -54q74 0 113 54t51 119q4 18 5.5 35.5t1.5 33.5v0zM402 792l-90 -85h-65l57 85h98v0z" />
    <glyph glyph-name="Ocircumflex" unicode="&#xd4;" horiz-adv-x="583" 
d="M554 346q0 -12 -0.5 -24t-2.5 -25q-11 -111 -78.5 -204t-193.5 -93t-193 93t-78 204q-2 13 -2.5 25t-0.5 24t0.5 24t2.5 25q11 111 78 204t193 93q128 0 195 -94t78 -207q1 -12 1.5 -23t0.5 -22v0zM450 346q0 16 -1.5 33.5t-5.5 35.5q-12 65 -51 119t-113 54t-113 -55
t-51 -120q-3 -17 -4.5 -34t-1.5 -33t1.5 -33.5t5.5 -35.5q12 -65 51 -119t112 -54q74 0 113 54t51 119q4 18 5.5 35.5t1.5 33.5v0zM397 708h-62l-58 32l-57 -32h-62l119 102l120 -102v0z" />
    <glyph glyph-name="apple" unicode="&#xf000;" 
 />
    <glyph glyph-name="Ograve" unicode="&#xd2;" 
 />
    <glyph glyph-name="Uacute" unicode="&#xda;" horiz-adv-x="477" 
d="M446 209q0 -91 -65 -156t-157 -65q-91 0 -156.5 65t-65.5 156v484h104v-484q0 -48 34.5 -83t83.5 -35t83.5 34.5t34.5 83.5v484h104v-484v0zM330 784l-90 -85h-65l57 85h98v0z" />
    <glyph glyph-name="Ucircumflex" unicode="&#xdb;" horiz-adv-x="477" 
d="M446 209q0 -91 -65 -156t-157 -65q-91 0 -156.5 65t-65.5 156v484h104v-484q0 -48 34.5 -83t83.5 -35t83.5 34.5t34.5 83.5v484h104v-484v0zM340 706h-62l-58 32l-57 -32h-62l119 102l120 -102v0z" />
    <glyph glyph-name="Ugrave" unicode="&#xd9;" horiz-adv-x="477" 
d="M446 209q0 -91 -65 -156t-157 -65q-91 0 -156.5 65t-65.5 156v484h104v-484q0 -48 34.5 -83t83.5 -35t83.5 34.5t34.5 83.5v484h104v-484v0zM279 697h-65l-90 85h98l57 -85v0z" />
    <glyph glyph-name="dotlessi" unicode="&#x131;" horiz-adv-x="159" 
d="M122 0h-104v459h104v-459v0z" />
    <glyph glyph-name="circumflex" unicode="&#x2dc;" horiz-adv-x="285" 
d="M262 720h-62l-58 32l-57 -32h-62l119 102l120 -102v0z" />
    <glyph glyph-name="tilde" unicode="&#x2c6;" horiz-adv-x="285" 
d="M257 807q0 -6 -1 -13.5t-3 -14.5q-3 -13 -8.5 -24.5t-13.5 -19.5q-8 -10 -18.5 -14.5t-21.5 -4.5q-3 0 -5.5 0.5t-4.5 0.5q-2 1 -4.5 1.5t-5.5 1.5q-18 7 -36 13.5t-36 13.5q-2 -5 -4 -11t-2 -12h-65q0 6 1 13.5t3 14.5q3 13 9 24.5t13 19.5q8 10 18.5 14.5t21.5 4.5
q3 0 5.5 -0.5t4.5 -0.5q2 -1 4.5 -1.5t5.5 -1.5q18 -7 36 -13.5t36 -13.5q2 3 3.5 7.5t1.5 9.5q1 1 1 3v3h65v0z" />
    <glyph glyph-name="macron" unicode="&#x2c9;" horiz-adv-x="500" 
 />
    <glyph glyph-name="breve" unicode="&#x2d8;" horiz-adv-x="500" 
 />
    <glyph glyph-name="dotaccent" unicode="&#x2d9;" horiz-adv-x="500" 
 />
    <glyph glyph-name="ring" unicode="&#x2da;" horiz-adv-x="148" 
d="M129 742q0 -19 -15 -34t-36 -15q-19 0 -34 15t-15 34q0 21 15 36t34 15q21 0 36 -15t15 -36v0zM104 742q0 11 -7.5 18t-18.5 7q-10 0 -16.5 -7t-6.5 -18q0 -10 6.5 -17t16.5 -7q11 0 18.5 7t7.5 17v0z" />
    <glyph glyph-name="cedilla" unicode="&#xb8;" horiz-adv-x="285" 
d="M237 -116q0 -13 -4.5 -24.5t-12.5 -21.5q-14 -15 -33.5 -22.5t-39.5 -9.5q-5 -1 -9.5 -1h-8.5h-9.5t-9.5 1q-24 2 -46.5 10t-36.5 20l43 48q8 -6 24.5 -10t34.5 -4q8 0 15.5 1t13.5 3q1 0 2.5 0.5t3.5 1.5q3 1 6 3t3 6q0 6 -6.5 10.5t-13.5 6.5q-5 2 -9.5 3t-7.5 1l-36 5
q5 16 9 31t9 30q4 15 8.5 29.5t8.5 29.5l62 -18l-16 -53q24 -10 40 -29t16 -46v-1z" />
    <glyph glyph-name="hungarumlaut" unicode="&#x2ba;" horiz-adv-x="500" 
 />
    <glyph glyph-name="ogonek" unicode="&#x2db;" horiz-adv-x="500" 
 />
    <glyph glyph-name="caron" unicode="&#x2c7;" horiz-adv-x="285" 
d="M252 800l-110 -102l-109 102h52l57 -32l58 32h52v0z" />
    <glyph glyph-name="Lslash" unicode="&#x141;" horiz-adv-x="500" 
 />
    <glyph glyph-name="lslash" unicode="&#x142;" horiz-adv-x="500" 
 />
    <glyph glyph-name="Scaron" unicode="&#x160;" horiz-adv-x="440" 
d="M413 588q-8 0 -17 0.5t-19 0.5t-20 0.5t-20 0.5h-3h-3q-52 -1 -95.5 -19t-46.5 -83v-2.5v-2.5q0 -33 18.5 -58.5t40.5 -48.5l7 -7l7 -7q2 -3 5 -5.5t5 -5.5q25 -27 38.5 -60.5t15.5 -67.5v-7v-6q0 -43 -17 -83.5t-51 -71.5q-47 -43 -102.5 -49t-113.5 -6h-20.5h-20.5v104
h16.5h17.5q9 -1 18.5 -1h19.5h5.5h5.5q51 1 93.5 19.5t44.5 81.5v0.5v1.5v1.5v0.5q0 35 -16.5 59.5t-38.5 46.5q-3 2 -5 4.5t-5 5.5l-8.5 8.5t-8.5 9.5q-25 28 -38.5 61t-16.5 67v7.5v6.5q0 43 17 83t51 71q41 37 88 46t97 9h18.5h19.5q9 -1 18.5 -1h18.5v-104v0zM450 803
l-110 -102l-109 102h52l57 -32l58 32h52v0z" />
    <glyph glyph-name="scaron" unicode="&#x161;" horiz-adv-x="276" 
d="M253 354h-16.5h-16.5h-17.5h-16.5q-21 0 -34 -13t-13 -30q0 -7 2.5 -14t8.5 -14q8 -10 16.5 -19t16.5 -18q20 -21 29.5 -47t8.5 -53v-4.5v-4.5q-2 -27 -14 -53t-33 -45q-34 -30 -71.5 -34.5t-78.5 -4.5h-9h-10v104h16h17h16h16h3.5h3.5q8 1 15 3.5t12 7.5q7 7 10.5 15.5
t3.5 17.5q-1 8 -3.5 15t-7.5 13q-4 5 -8.5 9.5t-8.5 9.5q-5 4 -9 9t-8 9q-19 22 -28.5 47t-9.5 51q0 56 40.5 101.5t110.5 45.5h67v-104v0zM300 572l-110 -102l-109 102h52l57 -32l58 32h52v0z" />
    <glyph glyph-name="Zcaron" unicode="&#x17d;" horiz-adv-x="500" 
 />
    <glyph glyph-name="zcaron" unicode="&#x17e;" horiz-adv-x="500" 
 />
    <glyph glyph-name="brokenbar" unicode="&#xa6;" horiz-adv-x="500" 
 />
    <glyph glyph-name="Eth" unicode="&#xd0;" horiz-adv-x="592" 
d="M557 406q0 -91 -27 -167t-84 -132q-52 -50 -128 -78.5t-178 -28.5h-52v287h-80v104h80v301h223q60 0 104.5 -22t74.5 -59t46 -82.5t20 -93.5q0 -8 0.5 -15t0.5 -14v0zM453 406v4v4q-2 66 -35.5 120.5t-106.5 54.5h-119v-198h80v-104h-80v-180q60 6 105 25t76 49
q41 40 60.5 97.5t19.5 127.5v0z" />
    <glyph glyph-name="eth" unicode="&#xf0;" horiz-adv-x="464" 
d="M458 422l-30 -15t-33 -16v-77.5v-94.5v-59v-55q-1 -45 -1 -75v-30h-205q-37 0 -69.5 15t-57.5 40q-23 25 -37 58.5t-14 70.5q0 96 84.5 158t185.5 110q2 1 3.5 1.5t2.5 1.5q-1 14 -3 27t-5 23l-71 -37l-36 69l71 37q-9 7 -20 10.5t-22 4.5h1h-4.5h-4.5q-6 0 -12 -0.5
t-11 -2.5l-30 100q14 4 27.5 6t26.5 2q41 -1 79.5 -18.5t64.5 -51.5l53 28l36 -69l-54 -28q4 -13 7.5 -26t5.5 -27l12 6l12 6l48 -92v0zM291 104v238q-70 -35 -123 -74t-53 -84q0 -16 6.5 -31t16.5 -26v-1q10 -10 23 -16t28 -6h102v0z" />
    <glyph glyph-name="Yacute" unicode="&#xdd;" 
 />
    <glyph glyph-name="yacute" unicode="&#xfd;" 
 />
    <glyph glyph-name="Thorn" unicode="&#xde;" horiz-adv-x="469" 
d="M439 425q0 -98 -82.5 -162t-182.5 -114q-2 -2 -5 -3.5t-6 -2.5v-143h-104v91q-3 -1 -5.5 -2.5t-4.5 -3.5l-50 91l30 16t30 15v486h104v-79h102q76 0 125 -57.5t49 -131.5v0zM336 425q0 4 -0.5 8t-0.5 8q-5 26 -23 47.5t-47 21.5h-102v-250q68 36 120.5 77t52.5 88v0z" />
    <glyph glyph-name="thorn" unicode="&#xfe;" horiz-adv-x="476" 
d="M446 273q0 -95 -84.5 -157t-185.5 -111q-3 -1 -5 -2l-4 -2v-170h-104v121q-4 -1 -8 -3.5t-8 -3.5l-48 91q14 8 30.5 15.5t33.5 15.5v625h104v-234h102q37 0 69.5 -14.5t56.5 -40.5q23 -25 37 -58.5t14 -71.5v0zM342 273q0 17 -6 32.5t-17 25.5v1q-10 10 -23 16t-27 6
h-102v-238q70 35 122.5 74t52.5 83v0z" />
    <glyph glyph-name="minus" unicode="&#x2212;" horiz-adv-x="500" 
 />
    <glyph glyph-name="multiply" unicode="&#xd7;" horiz-adv-x="500" 
 />
    <glyph glyph-name="onesuperior" unicode="&#xb9;" horiz-adv-x="500" 
 />
    <glyph glyph-name="twosuperior" unicode="&#xb2;" horiz-adv-x="500" 
 />
    <glyph glyph-name="threesuperior" unicode="&#xb3;" horiz-adv-x="500" 
 />
    <glyph glyph-name="onehalf" unicode="&#xbd;" horiz-adv-x="500" 
 />
    <glyph glyph-name="onequarter" unicode="&#xbc;" horiz-adv-x="500" 
 />
    <glyph glyph-name="threequarters" unicode="&#xbe;" horiz-adv-x="500" 
 />
    <glyph glyph-name="franc" unicode="&#x20a3;" horiz-adv-x="500" 
 />
    <glyph glyph-name="Gbreve" unicode="&#x11e;" 
 />
    <glyph glyph-name="gbreve" unicode="&#x11f;" 
 />
    <glyph glyph-name="Idotaccent" unicode="&#x130;" 
 />
    <glyph glyph-name="Scedilla" unicode="&#x15e;" 
 />
    <glyph glyph-name="scedilla" unicode="&#x15f;" 
 />
    <glyph glyph-name="Cacute" unicode="&#x106;" 
 />
    <glyph glyph-name="cacute" unicode="&#x107;" 
 />
    <glyph glyph-name="Ccaron" unicode="&#x10c;" 
 />
    <glyph glyph-name="ccaron" unicode="&#x10d;" 
 />
    <glyph glyph-name="dslash" unicode="&#x111;" 
 />
    <glyph glyph-name="arrowright" unicode="&#x2192;" horiz-adv-x="500" 
 />
    <glyph glyph-name="house" unicode="&#x2302;" 
 />
    <glyph glyph-name="endash" unicode="&#x2013;" horiz-adv-x="476" 
d="M469 371v-104h-459v104h459v0z" />
    <glyph glyph-name="sfthyphen" unicode="&#xad;" horiz-adv-x="500" 
 />
    <glyph glyph-name="filledbox" unicode="&#x25a0;" horiz-adv-x="500" 
 />
    <glyph glyph-name="bullet" unicode="&#x2022;" horiz-adv-x="270" 
d="M258 352q0 -49 -36.5 -85.5t-87.5 -36.5q-49 0 -85.5 36.5t-36.5 85.5q0 51 36.5 87.5t85.5 36.5q51 0 87.5 -36.5t36.5 -87.5v0z" />
    <glyph glyph-name="overstore" unicode="&#xaf;" 
 />
    <glyph glyph-name="degree" unicode="&#xb0;" horiz-adv-x="500" 
 />
    <glyph glyph-name="middot" unicode="&#xb7;" 
 />
    <glyph glyph-name="underscoredbl" unicode="&#x2017;" horiz-adv-x="500" 
 />
    <glyph glyph-name="exclamdbl" unicode="&#x203c;" horiz-adv-x="500" 
 />
    <glyph glyph-name="nsuperior" unicode="&#x207f;" horiz-adv-x="500" 
 />
    <glyph glyph-name="peseta" unicode="&#x20a7;" horiz-adv-x="500" 
 />
    <glyph glyph-name="Gamma" unicode="&#x393;" horiz-adv-x="500" 
 />
    <glyph glyph-name="Theta" unicode="&#x398;" horiz-adv-x="500" 
 />
    <glyph glyph-name="Phi" unicode="&#x3a6;" horiz-adv-x="500" 
 />
    <glyph glyph-name="alpha" unicode="&#x3b1;" horiz-adv-x="500" 
 />
    <glyph glyph-name="delta" unicode="&#x3b4;" horiz-adv-x="500" 
 />
    <glyph glyph-name="epsilon" unicode="&#x3b5;" horiz-adv-x="500" 
 />
    <glyph glyph-name="sigma" unicode="&#x3c3;" 
 />
    <glyph glyph-name="tau" unicode="&#x3c4;" horiz-adv-x="500" 
 />
    <glyph glyph-name="phi" unicode="&#x3c6;" 
 />
    <glyph glyph-name="arrowleft" unicode="&#x2190;" 
 />
    <glyph glyph-name="arrowup" unicode="&#x2191;" 
 />
    <glyph glyph-name="arrowdown" unicode="&#x2193;" 
 />
    <glyph glyph-name="arrowboth" unicode="&#x2194;" 
 />
    <glyph glyph-name="arrowupdn" unicode="&#x2195;" 
 />
    <glyph glyph-name="arrowupdnbase" unicode="&#x21a8;" 
 />
    <glyph glyph-name="orthogonal" unicode="&#x221f;" 
 />
    <glyph glyph-name="intersection" unicode="&#x2229;" 
 />
    <glyph glyph-name="equivalence" unicode="&#x2261;" 
 />
    <glyph glyph-name="revlogicalnot" unicode="&#x2310;" 
 />
    <glyph glyph-name="integraltp" unicode="&#x2320;" 
 />
    <glyph glyph-name="integralbt" unicode="&#x2321;" 
 />
    <glyph glyph-name="filledrect" unicode="&#x25ac;" 
 />
    <glyph glyph-name="circle" unicode="&#x25cb;" 
 />
    <glyph glyph-name="triagup" unicode="&#x25b2;" 
 />
    <glyph glyph-name="triagrt" unicode="&#x25ba;" 
 />
    <glyph glyph-name="triagdn" unicode="&#x25bc;" 
 />
    <glyph glyph-name="triaglf" unicode="&#x25c4;" 
 />
    <glyph glyph-name="invbullet" unicode="&#x25d8;" 
 />
    <glyph glyph-name="invcircle" unicode="&#x25d9;" 
 />
    <glyph glyph-name="Rcaron" unicode="&#x158;" 
 />
    <glyph glyph-name="upblock" unicode="&#x2580;" 
 />
    <glyph glyph-name="dnblock" unicode="&#x2584;" 
 />
    <glyph glyph-name="block" unicode="&#x2588;" 
 />
    <glyph glyph-name="lfblock" unicode="&#x258c;" 
 />
    <glyph glyph-name="rtblock" unicode="&#x2590;" 
 />
    <glyph glyph-name="ltshade" unicode="&#x2591;" 
 />
    <glyph glyph-name="shade" unicode="&#x2592;" 
 />
    <glyph glyph-name="dkshade" unicode="&#x2593;" 
 />
    <glyph glyph-name="smileface" unicode="&#x263a;" 
 />
    <glyph glyph-name="invsmileface" unicode="&#x263b;" 
 />
    <glyph glyph-name="sun" unicode="&#x263c;" 
 />
    <glyph glyph-name="female" unicode="&#x2640;" 
 />
    <glyph glyph-name="male" unicode="&#x2642;" 
 />
    <glyph glyph-name="spade" unicode="&#x2660;" 
 />
    <glyph glyph-name="club" unicode="&#x2663;" 
 />
    <glyph glyph-name="heart" unicode="&#x2665;" 
 />
    <glyph glyph-name="diamond" unicode="&#x2666;" 
 />
    <glyph glyph-name="musicalnote" unicode="&#x266a;" 
 />
    <glyph glyph-name="musicalnotedbl" unicode="&#x266b;" 
 />
    <glyph glyph-name="Abreve" unicode="&#x102;" 
 />
    <glyph glyph-name="abreve" unicode="&#x103;" 
 />
    <glyph glyph-name="Aogonek" unicode="&#x104;" 
 />
    <glyph glyph-name="aogonek" unicode="&#x105;" 
 />
    <glyph glyph-name="Dcaron" unicode="&#x10e;" 
 />
    <glyph glyph-name="dcaron" unicode="&#x10f;" 
 />
    <glyph glyph-name="Dslash" unicode="&#x110;" 
 />
    <glyph glyph-name="Eogonek" unicode="&#x118;" 
 />
    <glyph glyph-name="eogonek" unicode="&#x119;" 
 />
    <glyph glyph-name="Ecaron" unicode="&#x11a;" 
 />
    <glyph glyph-name="ecaron" unicode="&#x11b;" 
 />
    <glyph glyph-name="Lacute" unicode="&#x139;" 
 />
    <glyph glyph-name="lacute" unicode="&#x13a;" 
 />
    <glyph glyph-name="Lcaron" unicode="&#x13d;" 
 />
    <glyph glyph-name="lcaron" unicode="&#x13e;" 
 />
    <glyph glyph-name="Nacute" unicode="&#x143;" 
 />
    <glyph glyph-name="nacute" unicode="&#x144;" 
 />
    <glyph glyph-name="Ncaron" unicode="&#x147;" 
 />
    <glyph glyph-name="ncaron" unicode="&#x148;" 
 />
    <glyph glyph-name="Odblacute" unicode="&#x150;" 
 />
    <glyph glyph-name="odblacute" unicode="&#x151;" 
 />
    <glyph glyph-name="Racute" unicode="&#x154;" 
 />
    <glyph glyph-name="racute" unicode="&#x155;" 
 />
    <glyph glyph-name="rcaron" unicode="&#x159;" 
 />
    <glyph glyph-name="Sacute" unicode="&#x15a;" 
 />
    <glyph glyph-name="sacute" unicode="&#x15b;" 
 />
    <glyph glyph-name="Tcedilla" unicode="&#x162;" 
 />
    <glyph glyph-name="tcedilla" unicode="&#x163;" 
 />
    <glyph glyph-name="Tcaron" unicode="&#x164;" 
 />
    <glyph glyph-name="tcaron" unicode="&#x165;" 
 />
    <glyph glyph-name="Uring" unicode="&#x16e;" 
 />
    <glyph glyph-name="uring" unicode="&#x16f;" 
 />
    <glyph glyph-name="Udblacute" unicode="&#x171;" 
 />
    <glyph glyph-name="udblacute" unicode="&#x170;" 
 />
    <glyph glyph-name="Zacute" unicode="&#x179;" 
 />
    <glyph glyph-name="zacute" unicode="&#x17a;" 
 />
    <glyph glyph-name="Zdot" unicode="&#x17b;" 
 />
    <glyph glyph-name="zdot" unicode="&#x17c;" 
 />
    <glyph glyph-name="Ldot" unicode="&#x13f;" 
 />
    <glyph glyph-name="ldot" unicode="&#x140;" 
 />
    <glyph glyph-name="2500" unicode="&#x2500;" 
 />
    <glyph glyph-name="2502" unicode="&#x2502;" 
 />
    <glyph glyph-name="250c" unicode="&#x250c;" 
 />
    <glyph glyph-name="2510" unicode="&#x2510;" 
 />
    <glyph glyph-name="2514" unicode="&#x2514;" 
 />
    <glyph glyph-name="2518" unicode="&#x2518;" 
 />
    <glyph glyph-name="251c" unicode="&#x251c;" 
 />
    <glyph glyph-name="2524" unicode="&#x2524;" 
 />
    <glyph glyph-name="252c" unicode="&#x252c;" 
 />
    <glyph glyph-name="2534" unicode="&#x2534;" 
 />
    <glyph glyph-name="253c" unicode="&#x253c;" 
 />
    <glyph glyph-name="2550" unicode="&#x2550;" 
 />
    <glyph glyph-name="2551" unicode="&#x2551;" 
 />
    <glyph glyph-name="2552" unicode="&#x2552;" 
 />
    <glyph glyph-name="2553" unicode="&#x2553;" 
 />
    <glyph glyph-name="2554" unicode="&#x2554;" 
 />
    <glyph glyph-name="2555" unicode="&#x2555;" 
 />
    <glyph glyph-name="2556" unicode="&#x2556;" 
 />
    <glyph glyph-name="2557" unicode="&#x2557;" 
 />
    <glyph glyph-name="2558" unicode="&#x2558;" 
 />
    <glyph glyph-name="2559" unicode="&#x2559;" 
 />
    <glyph glyph-name="255a" unicode="&#x255a;" 
 />
    <glyph glyph-name="255b" unicode="&#x255b;" 
 />
    <glyph glyph-name="255c" unicode="&#x255c;" 
 />
    <glyph glyph-name="255d" unicode="&#x255d;" 
 />
    <glyph glyph-name="255e" unicode="&#x255e;" 
 />
    <glyph glyph-name="255f" unicode="&#x255f;" 
 />
    <glyph glyph-name="2560" unicode="&#x2560;" 
 />
    <glyph glyph-name="2561" unicode="&#x2561;" 
 />
    <glyph glyph-name="2562" unicode="&#x2562;" 
 />
    <glyph glyph-name="2563" unicode="&#x2563;" 
 />
    <glyph glyph-name="2564" unicode="&#x2564;" 
 />
    <glyph glyph-name="2565" unicode="&#x2565;" 
 />
    <glyph glyph-name="2566" unicode="&#x2566;" 
 />
    <glyph glyph-name="2567" unicode="&#x2567;" 
 />
    <glyph glyph-name="2568" unicode="&#x2568;" 
 />
    <glyph glyph-name="2569" unicode="&#x2569;" 
 />
    <glyph glyph-name="256a" unicode="&#x256a;" 
 />
    <glyph glyph-name="256b" unicode="&#x256b;" 
 />
    <glyph glyph-name="256c" unicode="&#x256c;" 
 />
    </font>
</defs>
</svg>
